<svg width="24" height="24" viewBox="0 0 24 24" fill="none" xmlns="http://www.w3.org/2000/svg">
<g clip-path="url(#clip0_3_36)">
<rect width="24" height="24" fill="white"/>
<path d="M15 0C15 -1.65685 13.6569 -3 12 -3C10.3431 -3 9 -1.65685 9 0H15ZM0 9C-1.65685 9 -3 10.3431 -3 12C-3 13.6569 -1.65685 15 0 15V9ZM9 0V6H15V0H9ZM6 9H0V15H6V9ZM9 6C9 7.65685 7.65685 9 6 9V15C10.9706 15 15 10.9706 15 6H9Z" fill="black"/>
</g>
<defs>
<clipPath id="clip0_3_36">
<rect width="24" height="24" fill="white"/>
</clipPath>
</defs>
</svg>
