<svg width="24" height="24" viewBox="0 0 24 24" fill="none" xmlns="http://www.w3.org/2000/svg">
<g clip-path="url(#clip0_3_38)">
<rect width="24" height="24" fill="white"/>
<path d="M15 0C15 -1.65685 13.6569 -3 12 -3C10.3431 -3 9 -1.65685 9 0H15ZM24 15C25.6569 15 27 13.6569 27 12C27 10.3431 25.6569 9 24 9V15ZM9 0V6H15V0H9ZM18 15H24V9H18V15ZM9 6C9 10.9706 13.0294 15 18 15V9C16.3431 9 15 7.65685 15 6H9Z" fill="black"/>
</g>
<defs>
<clipPath id="clip0_3_38">
<rect width="24" height="24" fill="white"/>
</clipPath>
</defs>
</svg>
