<svg width="24" height="24" viewBox="0 0 24 24" fill="none" xmlns="http://www.w3.org/2000/svg">
<g clip-path="url(#clip0_3_45)">
<rect width="24" height="24" fill="white"/>
<path d="M9 24C9 25.6569 10.3431 27 12 27C13.6569 27 15 25.6569 15 24H9ZM0 9C-1.65685 9 -3 10.3431 -3 12C-3 13.6569 -1.65685 15 0 15V9ZM15 0C15 -1.65685 13.6569 -3 12 -3C10.3431 -3 9 -1.65685 9 0H15ZM15 24V12H9V24H15ZM12 9H0V15H12V9ZM15 12V0H9V12H15Z" fill="black"/>
</g>
<defs>
<clipPath id="clip0_3_45">
<rect width="24" height="24" fill="white"/>
</clipPath>
</defs>
</svg>
