<svg width="24" height="24" viewBox="0 0 24 24" fill="none" xmlns="http://www.w3.org/2000/svg">
<g clip-path="url(#clip0_3_49)">
<rect width="24" height="24" fill="white"/>
<path d="M9 24C9 25.6569 10.3431 27 12 27C13.6569 27 15 25.6569 15 24H9ZM24 15C25.6569 15 27 13.6569 27 12C27 10.3431 25.6569 9 24 9V15ZM15 24V18H9V24H15ZM18 15H24V9H18V15ZM15 18C15 16.3431 16.3431 15 18 15V9C13.0294 9 9 13.0294 9 18H15Z" fill="black"/>
</g>
<defs>
<clipPath id="clip0_3_49">
<rect width="24" height="24" fill="white"/>
</clipPath>
</defs>
</svg>
