<svg width="24" height="24" viewBox="0 0 24 24" fill="none" xmlns="http://www.w3.org/2000/svg">
<g clip-path="url(#clip0_3_47)">
<rect width="24" height="24" fill="white"/>
<path d="M15 0C15 -1.65685 13.6569 -3 12 -3C10.3431 -3 9 -1.65685 9 0H15ZM24 15C25.6569 15 27 13.6569 27 12C27 10.3431 25.6569 9 24 9V15ZM9 24C9 25.6569 10.3431 27 12 27C13.6569 27 15 25.6569 15 24H9ZM9 0V12H15V0H9ZM12 15H24V9H12V15ZM9 12V24H15V12H9Z" fill="black"/>
</g>
<defs>
<clipPath id="clip0_3_47">
<rect width="24" height="24" fill="white"/>
</clipPath>
</defs>
</svg>
