<?xml version='1.0' encoding='ASCII' standalone='yes'?>
<svg xmlns="http://www.w3.org/2000/svg" xmlns:xlink="http://www.w3.org/1999/xlink" version="1.1" width="3590.551181102362px" viewBox="0 0 3590.551181102362 5744.881889763779" height="5744.881889763779px">
  <g>
    <g transform="translate(0, 0) scale(14.960629921259843 14.960629921259843) "><g transform="translate(0, 0) scale(1 1) "><g clip-path="url(#clip0_3_49)">
<rect width="24" height="24" fill="white"/>
<path d="M9 24C9 25.6569 10.3431 27 12 27C13.6569 27 15 25.6569 15 24H9ZM24 15C25.6569 15 27 13.6569 27 12C27 10.3431 25.6569 9 24 9V15ZM15 24V18H9V24H15ZM18 15H24V9H18V15ZM15 18C15 16.3431 16.3431 15 18 15V9C13.0294 9 9 13.0294 9 18H15Z" fill="black"/>
</g>
<defs>
<clipPath id="clip0_3_49">
<rect width="24" height="24" fill="white"/>
</clipPath>
</defs>
</g>
  <g transform="translate(24, 0) scale(1 1) "><g clip-path="url(#clip0_3_39)">
<rect width="24" height="24" fill="white"/>
<path d="M24 12L0 12" stroke="black" stroke-width="6" stroke-linecap="round"/>
</g>
<defs>
<clipPath id="clip0_3_39">
<rect width="24" height="24" fill="white"/>
</clipPath>
</defs>
</g>
  <g transform="translate(48, 0) scale(1 1) "><g clip-path="url(#clip0_3_39)">
<rect width="24" height="24" fill="white"/>
<path d="M24 12L0 12" stroke="black" stroke-width="6" stroke-linecap="round"/>
</g>
<defs>
<clipPath id="clip0_3_39">
<rect width="24" height="24" fill="white"/>
</clipPath>
</defs>
</g>
  <g transform="translate(72, 0) scale(1 1) "><g clip-path="url(#clip0_3_42)">
<rect width="24" height="24" fill="white"/>
<path d="M9 24C9 25.6569 10.3431 27 12 27C13.6569 27 15 25.6569 15 24H9ZM0 9C-1.65685 9 -3 10.3431 -3 12C-3 13.6569 -1.65685 15 0 15V9ZM15 24V18H9V24H15ZM6 9H0V15H6V9ZM15 18C15 13.0294 10.9706 9 6 9V15C7.65685 15 9 16.3431 9 18H15Z" fill="black"/>
</g>
<defs>
<clipPath id="clip0_3_42">
<rect width="24" height="24" fill="white"/>
</clipPath>
</defs>
</g>
  <g transform="translate(96, 0) scale(1 1) "><g clip-path="url(#clip0_3_47)">
<rect width="24" height="24" fill="white"/>
<path d="M15 0C15 -1.65685 13.6569 -3 12 -3C10.3431 -3 9 -1.65685 9 0H15ZM24 15C25.6569 15 27 13.6569 27 12C27 10.3431 25.6569 9 24 9V15ZM9 24C9 25.6569 10.3431 27 12 27C13.6569 27 15 25.6569 15 24H9ZM9 0V12H15V0H9ZM12 15H24V9H12V15ZM9 12V24H15V12H9Z" fill="black"/>
</g>
<defs>
<clipPath id="clip0_3_47">
<rect width="24" height="24" fill="white"/>
</clipPath>
</defs>
</g>
  <g transform="translate(120, 0) scale(1 1) "><g clip-path="url(#clip0_3_39)">
<rect width="24" height="24" fill="white"/>
<path d="M24 12L0 12" stroke="black" stroke-width="6" stroke-linecap="round"/>
</g>
<defs>
<clipPath id="clip0_3_39">
<rect width="24" height="24" fill="white"/>
</clipPath>
</defs>
</g>
  <g transform="translate(144, 0) scale(1 1) "><g clip-path="url(#clip0_3_42)">
<rect width="24" height="24" fill="white"/>
<path d="M9 24C9 25.6569 10.3431 27 12 27C13.6569 27 15 25.6569 15 24H9ZM0 9C-1.65685 9 -3 10.3431 -3 12C-3 13.6569 -1.65685 15 0 15V9ZM15 24V18H9V24H15ZM6 9H0V15H6V9ZM15 18C15 13.0294 10.9706 9 6 9V15C7.65685 15 9 16.3431 9 18H15Z" fill="black"/>
</g>
<defs>
<clipPath id="clip0_3_42">
<rect width="24" height="24" fill="white"/>
</clipPath>
</defs>
</g>
  <g transform="translate(168, 0) scale(1 1) "><g clip-path="url(#clip0_3_49)">
<rect width="24" height="24" fill="white"/>
<path d="M9 24C9 25.6569 10.3431 27 12 27C13.6569 27 15 25.6569 15 24H9ZM24 15C25.6569 15 27 13.6569 27 12C27 10.3431 25.6569 9 24 9V15ZM15 24V18H9V24H15ZM18 15H24V9H18V15ZM15 18C15 16.3431 16.3431 15 18 15V9C13.0294 9 9 13.0294 9 18H15Z" fill="black"/>
</g>
<defs>
<clipPath id="clip0_3_49">
<rect width="24" height="24" fill="white"/>
</clipPath>
</defs>
</g>
  <g transform="translate(192, 0) scale(1 1) "><g clip-path="url(#clip0_3_42)">
<rect width="24" height="24" fill="white"/>
<path d="M9 24C9 25.6569 10.3431 27 12 27C13.6569 27 15 25.6569 15 24H9ZM0 9C-1.65685 9 -3 10.3431 -3 12C-3 13.6569 -1.65685 15 0 15V9ZM15 24V18H9V24H15ZM6 9H0V15H6V9ZM15 18C15 13.0294 10.9706 9 6 9V15C7.65685 15 9 16.3431 9 18H15Z" fill="black"/>
</g>
<defs>
<clipPath id="clip0_3_42">
<rect width="24" height="24" fill="white"/>
</clipPath>
</defs>
</g>
  <g transform="translate(216, 0) scale(1 1) "><g clip-path="url(#clip0_3_41)">
<rect width="24" height="24" fill="white"/>
<path d="M15 12C15 10.3431 13.6569 9 12 9C10.3431 9 9 10.3431 9 12L15 12ZM9 24C9 25.6569 10.3431 27 12 27C13.6569 27 15 25.6569 15 24H9ZM9 12V24H15V12L9 12Z" fill="black"/>
</g>
<defs>
<clipPath id="clip0_3_41">
<rect width="24" height="24" fill="white"/>
</clipPath>
</defs>
</g>
  <g transform="translate(0, 24) scale(1 1) "><g clip-path="url(#clip0_3_44)">
<rect width="24" height="24" fill="white"/>
<path d="M12 24V-1.90735e-06" stroke="black" stroke-width="6" stroke-linecap="round"/>
</g>
<defs>
<clipPath id="clip0_3_44">
<rect width="24" height="24" fill="white"/>
</clipPath>
</defs>
</g>
  <g transform="translate(24, 24) scale(1 1) "><g clip-path="url(#clip0_3_49)">
<rect width="24" height="24" fill="white"/>
<path d="M9 24C9 25.6569 10.3431 27 12 27C13.6569 27 15 25.6569 15 24H9ZM24 15C25.6569 15 27 13.6569 27 12C27 10.3431 25.6569 9 24 9V15ZM15 24V18H9V24H15ZM18 15H24V9H18V15ZM15 18C15 16.3431 16.3431 15 18 15V9C13.0294 9 9 13.0294 9 18H15Z" fill="black"/>
</g>
<defs>
<clipPath id="clip0_3_49">
<rect width="24" height="24" fill="white"/>
</clipPath>
</defs>
</g>
  <g transform="translate(48, 24) scale(1 1) "><g clip-path="url(#clip0_3_34)">
<rect width="24" height="24" fill="white"/>
<path d="M12 15C13.6569 15 15 13.6569 15 12C15 10.3431 13.6569 9 12 9V15ZM0 9C-1.65685 9 -3 10.3431 -3 12C-3 13.6569 -1.65685 15 0 15V9ZM12 9H0V15H12V9Z" fill="black"/>
</g>
<defs>
<clipPath id="clip0_3_34">
<rect width="24" height="24" fill="white"/>
</clipPath>
</defs>
</g>
  <g transform="translate(72, 24) scale(1 1) "><g clip-path="url(#clip0_3_38)">
<rect width="24" height="24" fill="white"/>
<path d="M15 0C15 -1.65685 13.6569 -3 12 -3C10.3431 -3 9 -1.65685 9 0H15ZM24 15C25.6569 15 27 13.6569 27 12C27 10.3431 25.6569 9 24 9V15ZM9 0V6H15V0H9ZM18 15H24V9H18V15ZM9 6C9 10.9706 13.0294 15 18 15V9C16.3431 9 15 7.65685 15 6H9Z" fill="black"/>
</g>
<defs>
<clipPath id="clip0_3_38">
<rect width="24" height="24" fill="white"/>
</clipPath>
</defs>
</g>
  <g transform="translate(96, 24) scale(1 1) "><g clip-path="url(#clip0_3_46)">
<rect width="24" height="24" fill="white"/>
<path d="M9 24C9 25.6569 10.3431 27 12 27C13.6569 27 15 25.6569 15 24H9ZM24 15C25.6569 15 27 13.6569 27 12C27 10.3431 25.6569 9 24 9V15ZM0 9C-1.65685 9 -3 10.3431 -3 12C-3 13.6569 -1.65685 15 0 15V9ZM15 0C15 -1.65685 13.6569 -3 12 -3C10.3431 -3 9 -1.65685 9 0H15ZM15 24V12H9V24H15ZM12 15H24V9H12V15ZM12 9H0V15H12V9ZM15 12V0H9V12H15Z" fill="black"/>
</g>
<defs>
<clipPath id="clip0_3_46">
<rect width="24" height="24" fill="white"/>
</clipPath>
</defs>
</g>
  <g transform="translate(120, 24) scale(1 1) "><g clip-path="url(#clip0_3_34)">
<rect width="24" height="24" fill="white"/>
<path d="M12 15C13.6569 15 15 13.6569 15 12C15 10.3431 13.6569 9 12 9V15ZM0 9C-1.65685 9 -3 10.3431 -3 12C-3 13.6569 -1.65685 15 0 15V9ZM12 9H0V15H12V9Z" fill="black"/>
</g>
<defs>
<clipPath id="clip0_3_34">
<rect width="24" height="24" fill="white"/>
</clipPath>
</defs>
</g>
  <g transform="translate(144, 24) scale(1 1) "><g clip-path="url(#clip0_3_38)">
<rect width="24" height="24" fill="white"/>
<path d="M15 0C15 -1.65685 13.6569 -3 12 -3C10.3431 -3 9 -1.65685 9 0H15ZM24 15C25.6569 15 27 13.6569 27 12C27 10.3431 25.6569 9 24 9V15ZM9 0V6H15V0H9ZM18 15H24V9H18V15ZM9 6C9 10.9706 13.0294 15 18 15V9C16.3431 9 15 7.65685 15 6H9Z" fill="black"/>
</g>
<defs>
<clipPath id="clip0_3_38">
<rect width="24" height="24" fill="white"/>
</clipPath>
</defs>
</g>
  <g transform="translate(168, 24) scale(1 1) "><g clip-path="url(#clip0_3_36)">
<rect width="24" height="24" fill="white"/>
<path d="M15 0C15 -1.65685 13.6569 -3 12 -3C10.3431 -3 9 -1.65685 9 0H15ZM0 9C-1.65685 9 -3 10.3431 -3 12C-3 13.6569 -1.65685 15 0 15V9ZM9 0V6H15V0H9ZM6 9H0V15H6V9ZM9 6C9 7.65685 7.65685 9 6 9V15C10.9706 15 15 10.9706 15 6H9Z" fill="black"/>
</g>
<defs>
<clipPath id="clip0_3_36">
<rect width="24" height="24" fill="white"/>
</clipPath>
</defs>
</g>
  <g transform="translate(192, 24) scale(1 1) "><g clip-path="url(#clip0_3_44)">
<rect width="24" height="24" fill="white"/>
<path d="M12 24V-1.90735e-06" stroke="black" stroke-width="6" stroke-linecap="round"/>
</g>
<defs>
<clipPath id="clip0_3_44">
<rect width="24" height="24" fill="white"/>
</clipPath>
</defs>
</g>
  <g transform="translate(216, 24) scale(1 1) "><g clip-path="url(#clip0_3_44)">
<rect width="24" height="24" fill="white"/>
<path d="M12 24V-1.90735e-06" stroke="black" stroke-width="6" stroke-linecap="round"/>
</g>
<defs>
<clipPath id="clip0_3_44">
<rect width="24" height="24" fill="white"/>
</clipPath>
</defs>
</g>
  <g transform="translate(0, 48) scale(1 1) "><g clip-path="url(#clip0_3_44)">
<rect width="24" height="24" fill="white"/>
<path d="M12 24V-1.90735e-06" stroke="black" stroke-width="6" stroke-linecap="round"/>
</g>
<defs>
<clipPath id="clip0_3_44">
<rect width="24" height="24" fill="white"/>
</clipPath>
</defs>
</g>
  <g transform="translate(24, 48) scale(1 1) "><g clip-path="url(#clip0_3_44)">
<rect width="24" height="24" fill="white"/>
<path d="M12 24V-1.90735e-06" stroke="black" stroke-width="6" stroke-linecap="round"/>
</g>
<defs>
<clipPath id="clip0_3_44">
<rect width="24" height="24" fill="white"/>
</clipPath>
</defs>
</g>
  <g transform="translate(48, 48) scale(1 1) "><g clip-path="url(#clip0_3_49)">
<rect width="24" height="24" fill="white"/>
<path d="M9 24C9 25.6569 10.3431 27 12 27C13.6569 27 15 25.6569 15 24H9ZM24 15C25.6569 15 27 13.6569 27 12C27 10.3431 25.6569 9 24 9V15ZM15 24V18H9V24H15ZM18 15H24V9H18V15ZM15 18C15 16.3431 16.3431 15 18 15V9C13.0294 9 9 13.0294 9 18H15Z" fill="black"/>
</g>
<defs>
<clipPath id="clip0_3_49">
<rect width="24" height="24" fill="white"/>
</clipPath>
</defs>
</g>
  <g transform="translate(72, 48) scale(1 1) "><g clip-path="url(#clip0_3_42)">
<rect width="24" height="24" fill="white"/>
<path d="M9 24C9 25.6569 10.3431 27 12 27C13.6569 27 15 25.6569 15 24H9ZM0 9C-1.65685 9 -3 10.3431 -3 12C-3 13.6569 -1.65685 15 0 15V9ZM15 24V18H9V24H15ZM6 9H0V15H6V9ZM15 18C15 13.0294 10.9706 9 6 9V15C7.65685 15 9 16.3431 9 18H15Z" fill="black"/>
</g>
<defs>
<clipPath id="clip0_3_42">
<rect width="24" height="24" fill="white"/>
</clipPath>
</defs>
</g>
  <g transform="translate(96, 48) scale(1 1) "><g clip-path="url(#clip0_3_35)">
<rect width="24" height="24" fill="white"/>
<path d="M15 0C15 -1.65685 13.6569 -3 12 -3C10.3431 -3 9 -1.65685 9 0H15ZM9 12C9 13.6569 10.3431 15 12 15C13.6569 15 15 13.6569 15 12H9ZM9 0V12H15V0H9Z" fill="black"/>
</g>
<defs>
<clipPath id="clip0_3_35">
<rect width="24" height="24" fill="white"/>
</clipPath>
</defs>
</g>
  <g transform="translate(120, 48) scale(1 1) "><g clip-path="url(#clip0_3_49)">
<rect width="24" height="24" fill="white"/>
<path d="M9 24C9 25.6569 10.3431 27 12 27C13.6569 27 15 25.6569 15 24H9ZM24 15C25.6569 15 27 13.6569 27 12C27 10.3431 25.6569 9 24 9V15ZM15 24V18H9V24H15ZM18 15H24V9H18V15ZM15 18C15 16.3431 16.3431 15 18 15V9C13.0294 9 9 13.0294 9 18H15Z" fill="black"/>
</g>
<defs>
<clipPath id="clip0_3_49">
<rect width="24" height="24" fill="white"/>
</clipPath>
</defs>
</g>
  <g transform="translate(144, 48) scale(1 1) "><g clip-path="url(#clip0_3_39)">
<rect width="24" height="24" fill="white"/>
<path d="M24 12L0 12" stroke="black" stroke-width="6" stroke-linecap="round"/>
</g>
<defs>
<clipPath id="clip0_3_39">
<rect width="24" height="24" fill="white"/>
</clipPath>
</defs>
</g>
  <g transform="translate(168, 48) scale(1 1) "><g clip-path="url(#clip0_3_39)">
<rect width="24" height="24" fill="white"/>
<path d="M24 12L0 12" stroke="black" stroke-width="6" stroke-linecap="round"/>
</g>
<defs>
<clipPath id="clip0_3_39">
<rect width="24" height="24" fill="white"/>
</clipPath>
</defs>
</g>
  <g transform="translate(192, 48) scale(1 1) "><g clip-path="url(#clip0_3_36)">
<rect width="24" height="24" fill="white"/>
<path d="M15 0C15 -1.65685 13.6569 -3 12 -3C10.3431 -3 9 -1.65685 9 0H15ZM0 9C-1.65685 9 -3 10.3431 -3 12C-3 13.6569 -1.65685 15 0 15V9ZM9 0V6H15V0H9ZM6 9H0V15H6V9ZM9 6C9 7.65685 7.65685 9 6 9V15C10.9706 15 15 10.9706 15 6H9Z" fill="black"/>
</g>
<defs>
<clipPath id="clip0_3_36">
<rect width="24" height="24" fill="white"/>
</clipPath>
</defs>
</g>
  <g transform="translate(216, 48) scale(1 1) "><g clip-path="url(#clip0_3_44)">
<rect width="24" height="24" fill="white"/>
<path d="M12 24V-1.90735e-06" stroke="black" stroke-width="6" stroke-linecap="round"/>
</g>
<defs>
<clipPath id="clip0_3_44">
<rect width="24" height="24" fill="white"/>
</clipPath>
</defs>
</g>
  <g transform="translate(0, 72) scale(1 1) "><g clip-path="url(#clip0_3_38)">
<rect width="24" height="24" fill="white"/>
<path d="M15 0C15 -1.65685 13.6569 -3 12 -3C10.3431 -3 9 -1.65685 9 0H15ZM24 15C25.6569 15 27 13.6569 27 12C27 10.3431 25.6569 9 24 9V15ZM9 0V6H15V0H9ZM18 15H24V9H18V15ZM9 6C9 10.9706 13.0294 15 18 15V9C16.3431 9 15 7.65685 15 6H9Z" fill="black"/>
</g>
<defs>
<clipPath id="clip0_3_38">
<rect width="24" height="24" fill="white"/>
</clipPath>
</defs>
</g>
  <g transform="translate(24, 72) scale(1 1) "><g clip-path="url(#clip0_3_45)">
<rect width="24" height="24" fill="white"/>
<path d="M9 24C9 25.6569 10.3431 27 12 27C13.6569 27 15 25.6569 15 24H9ZM0 9C-1.65685 9 -3 10.3431 -3 12C-3 13.6569 -1.65685 15 0 15V9ZM15 0C15 -1.65685 13.6569 -3 12 -3C10.3431 -3 9 -1.65685 9 0H15ZM15 24V12H9V24H15ZM12 9H0V15H12V9ZM15 12V0H9V12H15Z" fill="black"/>
</g>
<defs>
<clipPath id="clip0_3_45">
<rect width="24" height="24" fill="white"/>
</clipPath>
</defs>
</g>
  <g transform="translate(48, 72) scale(1 1) "><g clip-path="url(#clip0_3_44)">
<rect width="24" height="24" fill="white"/>
<path d="M12 24V-1.90735e-06" stroke="black" stroke-width="6" stroke-linecap="round"/>
</g>
<defs>
<clipPath id="clip0_3_44">
<rect width="24" height="24" fill="white"/>
</clipPath>
</defs>
</g>
  <g transform="translate(72, 72) scale(1 1) "><g clip-path="url(#clip0_3_38)">
<rect width="24" height="24" fill="white"/>
<path d="M15 0C15 -1.65685 13.6569 -3 12 -3C10.3431 -3 9 -1.65685 9 0H15ZM24 15C25.6569 15 27 13.6569 27 12C27 10.3431 25.6569 9 24 9V15ZM9 0V6H15V0H9ZM18 15H24V9H18V15ZM9 6C9 10.9706 13.0294 15 18 15V9C16.3431 9 15 7.65685 15 6H9Z" fill="black"/>
</g>
<defs>
<clipPath id="clip0_3_38">
<rect width="24" height="24" fill="white"/>
</clipPath>
</defs>
</g>
  <g transform="translate(96, 72) scale(1 1) "><g clip-path="url(#clip0_3_42)">
<rect width="24" height="24" fill="white"/>
<path d="M9 24C9 25.6569 10.3431 27 12 27C13.6569 27 15 25.6569 15 24H9ZM0 9C-1.65685 9 -3 10.3431 -3 12C-3 13.6569 -1.65685 15 0 15V9ZM15 24V18H9V24H15ZM6 9H0V15H6V9ZM15 18C15 13.0294 10.9706 9 6 9V15C7.65685 15 9 16.3431 9 18H15Z" fill="black"/>
</g>
<defs>
<clipPath id="clip0_3_42">
<rect width="24" height="24" fill="white"/>
</clipPath>
</defs>
</g>
  <g transform="translate(120, 72) scale(1 1) "><g clip-path="url(#clip0_3_38)">
<rect width="24" height="24" fill="white"/>
<path d="M15 0C15 -1.65685 13.6569 -3 12 -3C10.3431 -3 9 -1.65685 9 0H15ZM24 15C25.6569 15 27 13.6569 27 12C27 10.3431 25.6569 9 24 9V15ZM9 0V6H15V0H9ZM18 15H24V9H18V15ZM9 6C9 10.9706 13.0294 15 18 15V9C16.3431 9 15 7.65685 15 6H9Z" fill="black"/>
</g>
<defs>
<clipPath id="clip0_3_38">
<rect width="24" height="24" fill="white"/>
</clipPath>
</defs>
</g>
  <g transform="translate(144, 72) scale(1 1) "><g clip-path="url(#clip0_3_42)">
<rect width="24" height="24" fill="white"/>
<path d="M9 24C9 25.6569 10.3431 27 12 27C13.6569 27 15 25.6569 15 24H9ZM0 9C-1.65685 9 -3 10.3431 -3 12C-3 13.6569 -1.65685 15 0 15V9ZM15 24V18H9V24H15ZM6 9H0V15H6V9ZM15 18C15 13.0294 10.9706 9 6 9V15C7.65685 15 9 16.3431 9 18H15Z" fill="black"/>
</g>
<defs>
<clipPath id="clip0_3_42">
<rect width="24" height="24" fill="white"/>
</clipPath>
</defs>
</g>
  <g transform="translate(168, 72) scale(1 1) "><g clip-path="url(#clip0_3_49)">
<rect width="24" height="24" fill="white"/>
<path d="M9 24C9 25.6569 10.3431 27 12 27C13.6569 27 15 25.6569 15 24H9ZM24 15C25.6569 15 27 13.6569 27 12C27 10.3431 25.6569 9 24 9V15ZM15 24V18H9V24H15ZM18 15H24V9H18V15ZM15 18C15 16.3431 16.3431 15 18 15V9C13.0294 9 9 13.0294 9 18H15Z" fill="black"/>
</g>
<defs>
<clipPath id="clip0_3_49">
<rect width="24" height="24" fill="white"/>
</clipPath>
</defs>
</g>
  <g transform="translate(192, 72) scale(1 1) "><g clip-path="url(#clip0_3_42)">
<rect width="24" height="24" fill="white"/>
<path d="M9 24C9 25.6569 10.3431 27 12 27C13.6569 27 15 25.6569 15 24H9ZM0 9C-1.65685 9 -3 10.3431 -3 12C-3 13.6569 -1.65685 15 0 15V9ZM15 24V18H9V24H15ZM6 9H0V15H6V9ZM15 18C15 13.0294 10.9706 9 6 9V15C7.65685 15 9 16.3431 9 18H15Z" fill="black"/>
</g>
<defs>
<clipPath id="clip0_3_42">
<rect width="24" height="24" fill="white"/>
</clipPath>
</defs>
</g>
  <g transform="translate(216, 72) scale(1 1) "><g clip-path="url(#clip0_3_44)">
<rect width="24" height="24" fill="white"/>
<path d="M12 24V-1.90735e-06" stroke="black" stroke-width="6" stroke-linecap="round"/>
</g>
<defs>
<clipPath id="clip0_3_44">
<rect width="24" height="24" fill="white"/>
</clipPath>
</defs>
</g>
  <g transform="translate(0, 96) scale(1 1) "><g clip-path="url(#clip0_3_49)">
<rect width="24" height="24" fill="white"/>
<path d="M9 24C9 25.6569 10.3431 27 12 27C13.6569 27 15 25.6569 15 24H9ZM24 15C25.6569 15 27 13.6569 27 12C27 10.3431 25.6569 9 24 9V15ZM15 24V18H9V24H15ZM18 15H24V9H18V15ZM15 18C15 16.3431 16.3431 15 18 15V9C13.0294 9 9 13.0294 9 18H15Z" fill="black"/>
</g>
<defs>
<clipPath id="clip0_3_49">
<rect width="24" height="24" fill="white"/>
</clipPath>
</defs>
</g>
  <g transform="translate(24, 96) scale(1 1) "><g clip-path="url(#clip0_3_36)">
<rect width="24" height="24" fill="white"/>
<path d="M15 0C15 -1.65685 13.6569 -3 12 -3C10.3431 -3 9 -1.65685 9 0H15ZM0 9C-1.65685 9 -3 10.3431 -3 12C-3 13.6569 -1.65685 15 0 15V9ZM9 0V6H15V0H9ZM6 9H0V15H6V9ZM9 6C9 7.65685 7.65685 9 6 9V15C10.9706 15 15 10.9706 15 6H9Z" fill="black"/>
</g>
<defs>
<clipPath id="clip0_3_36">
<rect width="24" height="24" fill="white"/>
</clipPath>
</defs>
</g>
  <g transform="translate(48, 96) scale(1 1) "><g clip-path="url(#clip0_3_38)">
<rect width="24" height="24" fill="white"/>
<path d="M15 0C15 -1.65685 13.6569 -3 12 -3C10.3431 -3 9 -1.65685 9 0H15ZM24 15C25.6569 15 27 13.6569 27 12C27 10.3431 25.6569 9 24 9V15ZM9 0V6H15V0H9ZM18 15H24V9H18V15ZM9 6C9 10.9706 13.0294 15 18 15V9C16.3431 9 15 7.65685 15 6H9Z" fill="black"/>
</g>
<defs>
<clipPath id="clip0_3_38">
<rect width="24" height="24" fill="white"/>
</clipPath>
</defs>
</g>
  <g transform="translate(72, 96) scale(1 1) "><g clip-path="url(#clip0_3_42)">
<rect width="24" height="24" fill="white"/>
<path d="M9 24C9 25.6569 10.3431 27 12 27C13.6569 27 15 25.6569 15 24H9ZM0 9C-1.65685 9 -3 10.3431 -3 12C-3 13.6569 -1.65685 15 0 15V9ZM15 24V18H9V24H15ZM6 9H0V15H6V9ZM15 18C15 13.0294 10.9706 9 6 9V15C7.65685 15 9 16.3431 9 18H15Z" fill="black"/>
</g>
<defs>
<clipPath id="clip0_3_42">
<rect width="24" height="24" fill="white"/>
</clipPath>
</defs>
</g>
  <g transform="translate(96, 96) scale(1 1) "><g clip-path="url(#clip0_3_44)">
<rect width="24" height="24" fill="white"/>
<path d="M12 24V-1.90735e-06" stroke="black" stroke-width="6" stroke-linecap="round"/>
</g>
<defs>
<clipPath id="clip0_3_44">
<rect width="24" height="24" fill="white"/>
</clipPath>
</defs>
</g>
  <g transform="translate(120, 96) scale(1 1) "><g clip-path="url(#clip0_3_49)">
<rect width="24" height="24" fill="white"/>
<path d="M9 24C9 25.6569 10.3431 27 12 27C13.6569 27 15 25.6569 15 24H9ZM24 15C25.6569 15 27 13.6569 27 12C27 10.3431 25.6569 9 24 9V15ZM15 24V18H9V24H15ZM18 15H24V9H18V15ZM15 18C15 16.3431 16.3431 15 18 15V9C13.0294 9 9 13.0294 9 18H15Z" fill="black"/>
</g>
<defs>
<clipPath id="clip0_3_49">
<rect width="24" height="24" fill="white"/>
</clipPath>
</defs>
</g>
  <g transform="translate(144, 96) scale(1 1) "><g clip-path="url(#clip0_3_37)">
<rect width="24" height="24" fill="white"/>
<path d="M15 0C15 -1.65685 13.6569 -3 12 -3C10.3431 -3 9 -1.65685 9 0H15ZM0 9C-1.65685 9 -3 10.3431 -3 12C-3 13.6569 -1.65685 15 0 15V9ZM24 15C25.6569 15 27 13.6569 27 12C27 10.3431 25.6569 9 24 9V15ZM9 0V12H15V0H9ZM12 9H0V15H12V9ZM12 15H24V9H12V15Z" fill="black"/>
</g>
<defs>
<clipPath id="clip0_3_37">
<rect width="24" height="24" fill="white"/>
</clipPath>
</defs>
</g>
  <g transform="translate(168, 96) scale(1 1) "><g clip-path="url(#clip0_3_45)">
<rect width="24" height="24" fill="white"/>
<path d="M9 24C9 25.6569 10.3431 27 12 27C13.6569 27 15 25.6569 15 24H9ZM0 9C-1.65685 9 -3 10.3431 -3 12C-3 13.6569 -1.65685 15 0 15V9ZM15 0C15 -1.65685 13.6569 -3 12 -3C10.3431 -3 9 -1.65685 9 0H15ZM15 24V12H9V24H15ZM12 9H0V15H12V9ZM15 12V0H9V12H15Z" fill="black"/>
</g>
<defs>
<clipPath id="clip0_3_45">
<rect width="24" height="24" fill="white"/>
</clipPath>
</defs>
</g>
  <g transform="translate(192, 96) scale(1 1) "><g clip-path="url(#clip0_3_47)">
<rect width="24" height="24" fill="white"/>
<path d="M15 0C15 -1.65685 13.6569 -3 12 -3C10.3431 -3 9 -1.65685 9 0H15ZM24 15C25.6569 15 27 13.6569 27 12C27 10.3431 25.6569 9 24 9V15ZM9 24C9 25.6569 10.3431 27 12 27C13.6569 27 15 25.6569 15 24H9ZM9 0V12H15V0H9ZM12 15H24V9H12V15ZM9 12V24H15V12H9Z" fill="black"/>
</g>
<defs>
<clipPath id="clip0_3_47">
<rect width="24" height="24" fill="white"/>
</clipPath>
</defs>
</g>
  <g transform="translate(216, 96) scale(1 1) "><g clip-path="url(#clip0_3_36)">
<rect width="24" height="24" fill="white"/>
<path d="M15 0C15 -1.65685 13.6569 -3 12 -3C10.3431 -3 9 -1.65685 9 0H15ZM0 9C-1.65685 9 -3 10.3431 -3 12C-3 13.6569 -1.65685 15 0 15V9ZM9 0V6H15V0H9ZM6 9H0V15H6V9ZM9 6C9 7.65685 7.65685 9 6 9V15C10.9706 15 15 10.9706 15 6H9Z" fill="black"/>
</g>
<defs>
<clipPath id="clip0_3_36">
<rect width="24" height="24" fill="white"/>
</clipPath>
</defs>
</g>
  <g transform="translate(0, 120) scale(1 1) "><g clip-path="url(#clip0_3_38)">
<rect width="24" height="24" fill="white"/>
<path d="M15 0C15 -1.65685 13.6569 -3 12 -3C10.3431 -3 9 -1.65685 9 0H15ZM24 15C25.6569 15 27 13.6569 27 12C27 10.3431 25.6569 9 24 9V15ZM9 0V6H15V0H9ZM18 15H24V9H18V15ZM9 6C9 10.9706 13.0294 15 18 15V9C16.3431 9 15 7.65685 15 6H9Z" fill="black"/>
</g>
<defs>
<clipPath id="clip0_3_38">
<rect width="24" height="24" fill="white"/>
</clipPath>
</defs>
</g>
  <g transform="translate(24, 120) scale(1 1) "><g clip-path="url(#clip0_3_42)">
<rect width="24" height="24" fill="white"/>
<path d="M9 24C9 25.6569 10.3431 27 12 27C13.6569 27 15 25.6569 15 24H9ZM0 9C-1.65685 9 -3 10.3431 -3 12C-3 13.6569 -1.65685 15 0 15V9ZM15 24V18H9V24H15ZM6 9H0V15H6V9ZM15 18C15 13.0294 10.9706 9 6 9V15C7.65685 15 9 16.3431 9 18H15Z" fill="black"/>
</g>
<defs>
<clipPath id="clip0_3_42">
<rect width="24" height="24" fill="white"/>
</clipPath>
</defs>
</g>
  <g transform="translate(48, 120) scale(1 1) "><g clip-path="url(#clip0_3_49)">
<rect width="24" height="24" fill="white"/>
<path d="M9 24C9 25.6569 10.3431 27 12 27C13.6569 27 15 25.6569 15 24H9ZM24 15C25.6569 15 27 13.6569 27 12C27 10.3431 25.6569 9 24 9V15ZM15 24V18H9V24H15ZM18 15H24V9H18V15ZM15 18C15 16.3431 16.3431 15 18 15V9C13.0294 9 9 13.0294 9 18H15Z" fill="black"/>
</g>
<defs>
<clipPath id="clip0_3_49">
<rect width="24" height="24" fill="white"/>
</clipPath>
</defs>
</g>
  <g transform="translate(72, 120) scale(1 1) "><g clip-path="url(#clip0_3_45)">
<rect width="24" height="24" fill="white"/>
<path d="M9 24C9 25.6569 10.3431 27 12 27C13.6569 27 15 25.6569 15 24H9ZM0 9C-1.65685 9 -3 10.3431 -3 12C-3 13.6569 -1.65685 15 0 15V9ZM15 0C15 -1.65685 13.6569 -3 12 -3C10.3431 -3 9 -1.65685 9 0H15ZM15 24V12H9V24H15ZM12 9H0V15H12V9ZM15 12V0H9V12H15Z" fill="black"/>
</g>
<defs>
<clipPath id="clip0_3_45">
<rect width="24" height="24" fill="white"/>
</clipPath>
</defs>
</g>
  <g transform="translate(96, 120) scale(1 1) "><g clip-path="url(#clip0_3_44)">
<rect width="24" height="24" fill="white"/>
<path d="M12 24V-1.90735e-06" stroke="black" stroke-width="6" stroke-linecap="round"/>
</g>
<defs>
<clipPath id="clip0_3_44">
<rect width="24" height="24" fill="white"/>
</clipPath>
</defs>
</g>
  <g transform="translate(120, 120) scale(1 1) "><g clip-path="url(#clip0_3_35)">
<rect width="24" height="24" fill="white"/>
<path d="M15 0C15 -1.65685 13.6569 -3 12 -3C10.3431 -3 9 -1.65685 9 0H15ZM9 12C9 13.6569 10.3431 15 12 15C13.6569 15 15 13.6569 15 12H9ZM9 0V12H15V0H9Z" fill="black"/>
</g>
<defs>
<clipPath id="clip0_3_35">
<rect width="24" height="24" fill="white"/>
</clipPath>
</defs>
</g>
  <g transform="translate(144, 120) scale(1 1) "><g clip-path="url(#clip0_3_49)">
<rect width="24" height="24" fill="white"/>
<path d="M9 24C9 25.6569 10.3431 27 12 27C13.6569 27 15 25.6569 15 24H9ZM24 15C25.6569 15 27 13.6569 27 12C27 10.3431 25.6569 9 24 9V15ZM15 24V18H9V24H15ZM18 15H24V9H18V15ZM15 18C15 16.3431 16.3431 15 18 15V9C13.0294 9 9 13.0294 9 18H15Z" fill="black"/>
</g>
<defs>
<clipPath id="clip0_3_49">
<rect width="24" height="24" fill="white"/>
</clipPath>
</defs>
</g>
  <g transform="translate(168, 120) scale(1 1) "><g clip-path="url(#clip0_3_36)">
<rect width="24" height="24" fill="white"/>
<path d="M15 0C15 -1.65685 13.6569 -3 12 -3C10.3431 -3 9 -1.65685 9 0H15ZM0 9C-1.65685 9 -3 10.3431 -3 12C-3 13.6569 -1.65685 15 0 15V9ZM9 0V6H15V0H9ZM6 9H0V15H6V9ZM9 6C9 7.65685 7.65685 9 6 9V15C10.9706 15 15 10.9706 15 6H9Z" fill="black"/>
</g>
<defs>
<clipPath id="clip0_3_36">
<rect width="24" height="24" fill="white"/>
</clipPath>
</defs>
</g>
  <g transform="translate(192, 120) scale(1 1) "><g clip-path="url(#clip0_3_47)">
<rect width="24" height="24" fill="white"/>
<path d="M15 0C15 -1.65685 13.6569 -3 12 -3C10.3431 -3 9 -1.65685 9 0H15ZM24 15C25.6569 15 27 13.6569 27 12C27 10.3431 25.6569 9 24 9V15ZM9 24C9 25.6569 10.3431 27 12 27C13.6569 27 15 25.6569 15 24H9ZM9 0V12H15V0H9ZM12 15H24V9H12V15ZM9 12V24H15V12H9Z" fill="black"/>
</g>
<defs>
<clipPath id="clip0_3_47">
<rect width="24" height="24" fill="white"/>
</clipPath>
</defs>
</g>
  <g transform="translate(216, 120) scale(1 1) "><g clip-path="url(#clip0_3_42)">
<rect width="24" height="24" fill="white"/>
<path d="M9 24C9 25.6569 10.3431 27 12 27C13.6569 27 15 25.6569 15 24H9ZM0 9C-1.65685 9 -3 10.3431 -3 12C-3 13.6569 -1.65685 15 0 15V9ZM15 24V18H9V24H15ZM6 9H0V15H6V9ZM15 18C15 13.0294 10.9706 9 6 9V15C7.65685 15 9 16.3431 9 18H15Z" fill="black"/>
</g>
<defs>
<clipPath id="clip0_3_42">
<rect width="24" height="24" fill="white"/>
</clipPath>
</defs>
</g>
  <g transform="translate(0, 144) scale(1 1) "><g clip-path="url(#clip0_3_49)">
<rect width="24" height="24" fill="white"/>
<path d="M9 24C9 25.6569 10.3431 27 12 27C13.6569 27 15 25.6569 15 24H9ZM24 15C25.6569 15 27 13.6569 27 12C27 10.3431 25.6569 9 24 9V15ZM15 24V18H9V24H15ZM18 15H24V9H18V15ZM15 18C15 16.3431 16.3431 15 18 15V9C13.0294 9 9 13.0294 9 18H15Z" fill="black"/>
</g>
<defs>
<clipPath id="clip0_3_49">
<rect width="24" height="24" fill="white"/>
</clipPath>
</defs>
</g>
  <g transform="translate(24, 144) scale(1 1) "><g clip-path="url(#clip0_3_36)">
<rect width="24" height="24" fill="white"/>
<path d="M15 0C15 -1.65685 13.6569 -3 12 -3C10.3431 -3 9 -1.65685 9 0H15ZM0 9C-1.65685 9 -3 10.3431 -3 12C-3 13.6569 -1.65685 15 0 15V9ZM9 0V6H15V0H9ZM6 9H0V15H6V9ZM9 6C9 7.65685 7.65685 9 6 9V15C10.9706 15 15 10.9706 15 6H9Z" fill="black"/>
</g>
<defs>
<clipPath id="clip0_3_36">
<rect width="24" height="24" fill="white"/>
</clipPath>
</defs>
</g>
  <g transform="translate(48, 144) scale(1 1) "><g clip-path="url(#clip0_3_44)">
<rect width="24" height="24" fill="white"/>
<path d="M12 24V-1.90735e-06" stroke="black" stroke-width="6" stroke-linecap="round"/>
</g>
<defs>
<clipPath id="clip0_3_44">
<rect width="24" height="24" fill="white"/>
</clipPath>
</defs>
</g>
  <g transform="translate(72, 144) scale(1 1) "><g clip-path="url(#clip0_3_44)">
<rect width="24" height="24" fill="white"/>
<path d="M12 24V-1.90735e-06" stroke="black" stroke-width="6" stroke-linecap="round"/>
</g>
<defs>
<clipPath id="clip0_3_44">
<rect width="24" height="24" fill="white"/>
</clipPath>
</defs>
</g>
  <g transform="translate(96, 144) scale(1 1) "><g clip-path="url(#clip0_3_47)">
<rect width="24" height="24" fill="white"/>
<path d="M15 0C15 -1.65685 13.6569 -3 12 -3C10.3431 -3 9 -1.65685 9 0H15ZM24 15C25.6569 15 27 13.6569 27 12C27 10.3431 25.6569 9 24 9V15ZM9 24C9 25.6569 10.3431 27 12 27C13.6569 27 15 25.6569 15 24H9ZM9 0V12H15V0H9ZM12 15H24V9H12V15ZM9 12V24H15V12H9Z" fill="black"/>
</g>
<defs>
<clipPath id="clip0_3_47">
<rect width="24" height="24" fill="white"/>
</clipPath>
</defs>
</g>
  <g transform="translate(120, 144) scale(1 1) "><g clip-path="url(#clip0_3_42)">
<rect width="24" height="24" fill="white"/>
<path d="M9 24C9 25.6569 10.3431 27 12 27C13.6569 27 15 25.6569 15 24H9ZM0 9C-1.65685 9 -3 10.3431 -3 12C-3 13.6569 -1.65685 15 0 15V9ZM15 24V18H9V24H15ZM6 9H0V15H6V9ZM15 18C15 13.0294 10.9706 9 6 9V15C7.65685 15 9 16.3431 9 18H15Z" fill="black"/>
</g>
<defs>
<clipPath id="clip0_3_42">
<rect width="24" height="24" fill="white"/>
</clipPath>
</defs>
</g>
  <g transform="translate(144, 144) scale(1 1) "><g clip-path="url(#clip0_3_44)">
<rect width="24" height="24" fill="white"/>
<path d="M12 24V-1.90735e-06" stroke="black" stroke-width="6" stroke-linecap="round"/>
</g>
<defs>
<clipPath id="clip0_3_44">
<rect width="24" height="24" fill="white"/>
</clipPath>
</defs>
</g>
  <g transform="translate(168, 144) scale(1 1) "><g clip-path="url(#clip0_3_49)">
<rect width="24" height="24" fill="white"/>
<path d="M9 24C9 25.6569 10.3431 27 12 27C13.6569 27 15 25.6569 15 24H9ZM24 15C25.6569 15 27 13.6569 27 12C27 10.3431 25.6569 9 24 9V15ZM15 24V18H9V24H15ZM18 15H24V9H18V15ZM15 18C15 16.3431 16.3431 15 18 15V9C13.0294 9 9 13.0294 9 18H15Z" fill="black"/>
</g>
<defs>
<clipPath id="clip0_3_49">
<rect width="24" height="24" fill="white"/>
</clipPath>
</defs>
</g>
  <g transform="translate(192, 144) scale(1 1) "><g clip-path="url(#clip0_3_36)">
<rect width="24" height="24" fill="white"/>
<path d="M15 0C15 -1.65685 13.6569 -3 12 -3C10.3431 -3 9 -1.65685 9 0H15ZM0 9C-1.65685 9 -3 10.3431 -3 12C-3 13.6569 -1.65685 15 0 15V9ZM9 0V6H15V0H9ZM6 9H0V15H6V9ZM9 6C9 7.65685 7.65685 9 6 9V15C10.9706 15 15 10.9706 15 6H9Z" fill="black"/>
</g>
<defs>
<clipPath id="clip0_3_36">
<rect width="24" height="24" fill="white"/>
</clipPath>
</defs>
</g>
  <g transform="translate(216, 144) scale(1 1) "><g clip-path="url(#clip0_3_44)">
<rect width="24" height="24" fill="white"/>
<path d="M12 24V-1.90735e-06" stroke="black" stroke-width="6" stroke-linecap="round"/>
</g>
<defs>
<clipPath id="clip0_3_44">
<rect width="24" height="24" fill="white"/>
</clipPath>
</defs>
</g>
  <g transform="translate(0, 168) scale(1 1) "><g clip-path="url(#clip0_3_35)">
<rect width="24" height="24" fill="white"/>
<path d="M15 0C15 -1.65685 13.6569 -3 12 -3C10.3431 -3 9 -1.65685 9 0H15ZM9 12C9 13.6569 10.3431 15 12 15C13.6569 15 15 13.6569 15 12H9ZM9 0V12H15V0H9Z" fill="black"/>
</g>
<defs>
<clipPath id="clip0_3_35">
<rect width="24" height="24" fill="white"/>
</clipPath>
</defs>
</g>
  <g transform="translate(24, 168) scale(1 1) "><g clip-path="url(#clip0_3_49)">
<rect width="24" height="24" fill="white"/>
<path d="M9 24C9 25.6569 10.3431 27 12 27C13.6569 27 15 25.6569 15 24H9ZM24 15C25.6569 15 27 13.6569 27 12C27 10.3431 25.6569 9 24 9V15ZM15 24V18H9V24H15ZM18 15H24V9H18V15ZM15 18C15 16.3431 16.3431 15 18 15V9C13.0294 9 9 13.0294 9 18H15Z" fill="black"/>
</g>
<defs>
<clipPath id="clip0_3_49">
<rect width="24" height="24" fill="white"/>
</clipPath>
</defs>
</g>
  <g transform="translate(48, 168) scale(1 1) "><g clip-path="url(#clip0_3_36)">
<rect width="24" height="24" fill="white"/>
<path d="M15 0C15 -1.65685 13.6569 -3 12 -3C10.3431 -3 9 -1.65685 9 0H15ZM0 9C-1.65685 9 -3 10.3431 -3 12C-3 13.6569 -1.65685 15 0 15V9ZM9 0V6H15V0H9ZM6 9H0V15H6V9ZM9 6C9 7.65685 7.65685 9 6 9V15C10.9706 15 15 10.9706 15 6H9Z" fill="black"/>
</g>
<defs>
<clipPath id="clip0_3_36">
<rect width="24" height="24" fill="white"/>
</clipPath>
</defs>
</g>
  <g transform="translate(72, 168) scale(1 1) "><g clip-path="url(#clip0_3_44)">
<rect width="24" height="24" fill="white"/>
<path d="M12 24V-1.90735e-06" stroke="black" stroke-width="6" stroke-linecap="round"/>
</g>
<defs>
<clipPath id="clip0_3_44">
<rect width="24" height="24" fill="white"/>
</clipPath>
</defs>
</g>
  <g transform="translate(96, 168) scale(1 1) "><g clip-path="url(#clip0_3_35)">
<rect width="24" height="24" fill="white"/>
<path d="M15 0C15 -1.65685 13.6569 -3 12 -3C10.3431 -3 9 -1.65685 9 0H15ZM9 12C9 13.6569 10.3431 15 12 15C13.6569 15 15 13.6569 15 12H9ZM9 0V12H15V0H9Z" fill="black"/>
</g>
<defs>
<clipPath id="clip0_3_35">
<rect width="24" height="24" fill="white"/>
</clipPath>
</defs>
</g>
  <g transform="translate(120, 168) scale(1 1) "><g clip-path="url(#clip0_3_38)">
<rect width="24" height="24" fill="white"/>
<path d="M15 0C15 -1.65685 13.6569 -3 12 -3C10.3431 -3 9 -1.65685 9 0H15ZM24 15C25.6569 15 27 13.6569 27 12C27 10.3431 25.6569 9 24 9V15ZM9 0V6H15V0H9ZM18 15H24V9H18V15ZM9 6C9 10.9706 13.0294 15 18 15V9C16.3431 9 15 7.65685 15 6H9Z" fill="black"/>
</g>
<defs>
<clipPath id="clip0_3_38">
<rect width="24" height="24" fill="white"/>
</clipPath>
</defs>
</g>
  <g transform="translate(144, 168) scale(1 1) "><g clip-path="url(#clip0_3_36)">
<rect width="24" height="24" fill="white"/>
<path d="M15 0C15 -1.65685 13.6569 -3 12 -3C10.3431 -3 9 -1.65685 9 0H15ZM0 9C-1.65685 9 -3 10.3431 -3 12C-3 13.6569 -1.65685 15 0 15V9ZM9 0V6H15V0H9ZM6 9H0V15H6V9ZM9 6C9 7.65685 7.65685 9 6 9V15C10.9706 15 15 10.9706 15 6H9Z" fill="black"/>
</g>
<defs>
<clipPath id="clip0_3_36">
<rect width="24" height="24" fill="white"/>
</clipPath>
</defs>
</g>
  <g transform="translate(168, 168) scale(1 1) "><g clip-path="url(#clip0_3_38)">
<rect width="24" height="24" fill="white"/>
<path d="M15 0C15 -1.65685 13.6569 -3 12 -3C10.3431 -3 9 -1.65685 9 0H15ZM24 15C25.6569 15 27 13.6569 27 12C27 10.3431 25.6569 9 24 9V15ZM9 0V6H15V0H9ZM18 15H24V9H18V15ZM9 6C9 10.9706 13.0294 15 18 15V9C16.3431 9 15 7.65685 15 6H9Z" fill="black"/>
</g>
<defs>
<clipPath id="clip0_3_38">
<rect width="24" height="24" fill="white"/>
</clipPath>
</defs>
</g>
  <g transform="translate(192, 168) scale(1 1) "><g clip-path="url(#clip0_3_34)">
<rect width="24" height="24" fill="white"/>
<path d="M12 15C13.6569 15 15 13.6569 15 12C15 10.3431 13.6569 9 12 9V15ZM0 9C-1.65685 9 -3 10.3431 -3 12C-3 13.6569 -1.65685 15 0 15V9ZM12 9H0V15H12V9Z" fill="black"/>
</g>
<defs>
<clipPath id="clip0_3_34">
<rect width="24" height="24" fill="white"/>
</clipPath>
</defs>
</g>
  <g transform="translate(216, 168) scale(1 1) "><g clip-path="url(#clip0_3_44)">
<rect width="24" height="24" fill="white"/>
<path d="M12 24V-1.90735e-06" stroke="black" stroke-width="6" stroke-linecap="round"/>
</g>
<defs>
<clipPath id="clip0_3_44">
<rect width="24" height="24" fill="white"/>
</clipPath>
</defs>
</g>
  <g transform="translate(0, 192) scale(1 1) "><g clip-path="url(#clip0_3_49)">
<rect width="24" height="24" fill="white"/>
<path d="M9 24C9 25.6569 10.3431 27 12 27C13.6569 27 15 25.6569 15 24H9ZM24 15C25.6569 15 27 13.6569 27 12C27 10.3431 25.6569 9 24 9V15ZM15 24V18H9V24H15ZM18 15H24V9H18V15ZM15 18C15 16.3431 16.3431 15 18 15V9C13.0294 9 9 13.0294 9 18H15Z" fill="black"/>
</g>
<defs>
<clipPath id="clip0_3_49">
<rect width="24" height="24" fill="white"/>
</clipPath>
</defs>
</g>
  <g transform="translate(24, 192) scale(1 1) "><g clip-path="url(#clip0_3_36)">
<rect width="24" height="24" fill="white"/>
<path d="M15 0C15 -1.65685 13.6569 -3 12 -3C10.3431 -3 9 -1.65685 9 0H15ZM0 9C-1.65685 9 -3 10.3431 -3 12C-3 13.6569 -1.65685 15 0 15V9ZM9 0V6H15V0H9ZM6 9H0V15H6V9ZM9 6C9 7.65685 7.65685 9 6 9V15C10.9706 15 15 10.9706 15 6H9Z" fill="black"/>
</g>
<defs>
<clipPath id="clip0_3_36">
<rect width="24" height="24" fill="white"/>
</clipPath>
</defs>
</g>
  <g transform="translate(48, 192) scale(1 1) "><g clip-path="url(#clip0_3_41)">
<rect width="24" height="24" fill="white"/>
<path d="M15 12C15 10.3431 13.6569 9 12 9C10.3431 9 9 10.3431 9 12L15 12ZM9 24C9 25.6569 10.3431 27 12 27C13.6569 27 15 25.6569 15 24H9ZM9 12V24H15V12L9 12Z" fill="black"/>
</g>
<defs>
<clipPath id="clip0_3_41">
<rect width="24" height="24" fill="white"/>
</clipPath>
</defs>
</g>
  <g transform="translate(72, 192) scale(1 1) "><g clip-path="url(#clip0_3_44)">
<rect width="24" height="24" fill="white"/>
<path d="M12 24V-1.90735e-06" stroke="black" stroke-width="6" stroke-linecap="round"/>
</g>
<defs>
<clipPath id="clip0_3_44">
<rect width="24" height="24" fill="white"/>
</clipPath>
</defs>
</g>
  <g transform="translate(96, 192) scale(1 1) "><g clip-path="url(#clip0_3_41)">
<rect width="24" height="24" fill="white"/>
<path d="M15 12C15 10.3431 13.6569 9 12 9C10.3431 9 9 10.3431 9 12L15 12ZM9 24C9 25.6569 10.3431 27 12 27C13.6569 27 15 25.6569 15 24H9ZM9 12V24H15V12L9 12Z" fill="black"/>
</g>
<defs>
<clipPath id="clip0_3_41">
<rect width="24" height="24" fill="white"/>
</clipPath>
</defs>
</g>
  <g transform="translate(120, 192) scale(1 1) "><g clip-path="url(#clip0_3_49)">
<rect width="24" height="24" fill="white"/>
<path d="M9 24C9 25.6569 10.3431 27 12 27C13.6569 27 15 25.6569 15 24H9ZM24 15C25.6569 15 27 13.6569 27 12C27 10.3431 25.6569 9 24 9V15ZM15 24V18H9V24H15ZM18 15H24V9H18V15ZM15 18C15 16.3431 16.3431 15 18 15V9C13.0294 9 9 13.0294 9 18H15Z" fill="black"/>
</g>
<defs>
<clipPath id="clip0_3_49">
<rect width="24" height="24" fill="white"/>
</clipPath>
</defs>
</g>
  <g transform="translate(144, 192) scale(1 1) "><g clip-path="url(#clip0_3_39)">
<rect width="24" height="24" fill="white"/>
<path d="M24 12L0 12" stroke="black" stroke-width="6" stroke-linecap="round"/>
</g>
<defs>
<clipPath id="clip0_3_39">
<rect width="24" height="24" fill="white"/>
</clipPath>
</defs>
</g>
  <g transform="translate(168, 192) scale(1 1) "><g clip-path="url(#clip0_3_39)">
<rect width="24" height="24" fill="white"/>
<path d="M24 12L0 12" stroke="black" stroke-width="6" stroke-linecap="round"/>
</g>
<defs>
<clipPath id="clip0_3_39">
<rect width="24" height="24" fill="white"/>
</clipPath>
</defs>
</g>
  <g transform="translate(192, 192) scale(1 1) "><g clip-path="url(#clip0_3_42)">
<rect width="24" height="24" fill="white"/>
<path d="M9 24C9 25.6569 10.3431 27 12 27C13.6569 27 15 25.6569 15 24H9ZM0 9C-1.65685 9 -3 10.3431 -3 12C-3 13.6569 -1.65685 15 0 15V9ZM15 24V18H9V24H15ZM6 9H0V15H6V9ZM15 18C15 13.0294 10.9706 9 6 9V15C7.65685 15 9 16.3431 9 18H15Z" fill="black"/>
</g>
<defs>
<clipPath id="clip0_3_42">
<rect width="24" height="24" fill="white"/>
</clipPath>
</defs>
</g>
  <g transform="translate(216, 192) scale(1 1) "><g clip-path="url(#clip0_3_44)">
<rect width="24" height="24" fill="white"/>
<path d="M12 24V-1.90735e-06" stroke="black" stroke-width="6" stroke-linecap="round"/>
</g>
<defs>
<clipPath id="clip0_3_44">
<rect width="24" height="24" fill="white"/>
</clipPath>
</defs>
</g>
  <g transform="translate(0, 216) scale(1 1) "><g clip-path="url(#clip0_3_38)">
<rect width="24" height="24" fill="white"/>
<path d="M15 0C15 -1.65685 13.6569 -3 12 -3C10.3431 -3 9 -1.65685 9 0H15ZM24 15C25.6569 15 27 13.6569 27 12C27 10.3431 25.6569 9 24 9V15ZM9 0V6H15V0H9ZM18 15H24V9H18V15ZM9 6C9 10.9706 13.0294 15 18 15V9C16.3431 9 15 7.65685 15 6H9Z" fill="black"/>
</g>
<defs>
<clipPath id="clip0_3_38">
<rect width="24" height="24" fill="white"/>
</clipPath>
</defs>
</g>
  <g transform="translate(24, 216) scale(1 1) "><g clip-path="url(#clip0_3_48)">
<rect width="24" height="24" fill="white"/>
<path d="M9 24C9 25.6569 10.3431 27 12 27C13.6569 27 15 25.6569 15 24H9ZM24 15C25.6569 15 27 13.6569 27 12C27 10.3431 25.6569 9 24 9V15ZM0 9C-1.65685 9 -3 10.3431 -3 12C-3 13.6569 -1.65685 15 0 15V9ZM15 24V12H9V24H15ZM12 15H24V9H12V15ZM12 9H0V15H12V9Z" fill="black"/>
</g>
<defs>
<clipPath id="clip0_3_48">
<rect width="24" height="24" fill="white"/>
</clipPath>
</defs>
</g>
  <g transform="translate(48, 216) scale(1 1) "><g clip-path="url(#clip0_3_36)">
<rect width="24" height="24" fill="white"/>
<path d="M15 0C15 -1.65685 13.6569 -3 12 -3C10.3431 -3 9 -1.65685 9 0H15ZM0 9C-1.65685 9 -3 10.3431 -3 12C-3 13.6569 -1.65685 15 0 15V9ZM9 0V6H15V0H9ZM6 9H0V15H6V9ZM9 6C9 7.65685 7.65685 9 6 9V15C10.9706 15 15 10.9706 15 6H9Z" fill="black"/>
</g>
<defs>
<clipPath id="clip0_3_36">
<rect width="24" height="24" fill="white"/>
</clipPath>
</defs>
</g>
  <g transform="translate(72, 216) scale(1 1) "><g clip-path="url(#clip0_3_38)">
<rect width="24" height="24" fill="white"/>
<path d="M15 0C15 -1.65685 13.6569 -3 12 -3C10.3431 -3 9 -1.65685 9 0H15ZM24 15C25.6569 15 27 13.6569 27 12C27 10.3431 25.6569 9 24 9V15ZM9 0V6H15V0H9ZM18 15H24V9H18V15ZM9 6C9 10.9706 13.0294 15 18 15V9C16.3431 9 15 7.65685 15 6H9Z" fill="black"/>
</g>
<defs>
<clipPath id="clip0_3_38">
<rect width="24" height="24" fill="white"/>
</clipPath>
</defs>
</g>
  <g transform="translate(96, 216) scale(1 1) "><g clip-path="url(#clip0_3_37)">
<rect width="24" height="24" fill="white"/>
<path d="M15 0C15 -1.65685 13.6569 -3 12 -3C10.3431 -3 9 -1.65685 9 0H15ZM0 9C-1.65685 9 -3 10.3431 -3 12C-3 13.6569 -1.65685 15 0 15V9ZM24 15C25.6569 15 27 13.6569 27 12C27 10.3431 25.6569 9 24 9V15ZM9 0V12H15V0H9ZM12 9H0V15H12V9ZM12 15H24V9H12V15Z" fill="black"/>
</g>
<defs>
<clipPath id="clip0_3_37">
<rect width="24" height="24" fill="white"/>
</clipPath>
</defs>
</g>
  <g transform="translate(120, 216) scale(1 1) "><g clip-path="url(#clip0_3_36)">
<rect width="24" height="24" fill="white"/>
<path d="M15 0C15 -1.65685 13.6569 -3 12 -3C10.3431 -3 9 -1.65685 9 0H15ZM0 9C-1.65685 9 -3 10.3431 -3 12C-3 13.6569 -1.65685 15 0 15V9ZM9 0V6H15V0H9ZM6 9H0V15H6V9ZM9 6C9 7.65685 7.65685 9 6 9V15C10.9706 15 15 10.9706 15 6H9Z" fill="black"/>
</g>
<defs>
<clipPath id="clip0_3_36">
<rect width="24" height="24" fill="white"/>
</clipPath>
</defs>
</g>
  <g transform="translate(144, 216) scale(1 1) "><g clip-path="url(#clip0_3_49)">
<rect width="24" height="24" fill="white"/>
<path d="M9 24C9 25.6569 10.3431 27 12 27C13.6569 27 15 25.6569 15 24H9ZM24 15C25.6569 15 27 13.6569 27 12C27 10.3431 25.6569 9 24 9V15ZM15 24V18H9V24H15ZM18 15H24V9H18V15ZM15 18C15 16.3431 16.3431 15 18 15V9C13.0294 9 9 13.0294 9 18H15Z" fill="black"/>
</g>
<defs>
<clipPath id="clip0_3_49">
<rect width="24" height="24" fill="white"/>
</clipPath>
</defs>
</g>
  <g transform="translate(168, 216) scale(1 1) "><g clip-path="url(#clip0_3_39)">
<rect width="24" height="24" fill="white"/>
<path d="M24 12L0 12" stroke="black" stroke-width="6" stroke-linecap="round"/>
</g>
<defs>
<clipPath id="clip0_3_39">
<rect width="24" height="24" fill="white"/>
</clipPath>
</defs>
</g>
  <g transform="translate(192, 216) scale(1 1) "><g clip-path="url(#clip0_3_36)">
<rect width="24" height="24" fill="white"/>
<path d="M15 0C15 -1.65685 13.6569 -3 12 -3C10.3431 -3 9 -1.65685 9 0H15ZM0 9C-1.65685 9 -3 10.3431 -3 12C-3 13.6569 -1.65685 15 0 15V9ZM9 0V6H15V0H9ZM6 9H0V15H6V9ZM9 6C9 7.65685 7.65685 9 6 9V15C10.9706 15 15 10.9706 15 6H9Z" fill="black"/>
</g>
<defs>
<clipPath id="clip0_3_36">
<rect width="24" height="24" fill="white"/>
</clipPath>
</defs>
</g>
  <g transform="translate(216, 216) scale(1 1) "><g clip-path="url(#clip0_3_35)">
<rect width="24" height="24" fill="white"/>
<path d="M15 0C15 -1.65685 13.6569 -3 12 -3C10.3431 -3 9 -1.65685 9 0H15ZM9 12C9 13.6569 10.3431 15 12 15C13.6569 15 15 13.6569 15 12H9ZM9 0V12H15V0H9Z" fill="black"/>
</g>
<defs>
<clipPath id="clip0_3_35">
<rect width="24" height="24" fill="white"/>
</clipPath>
</defs>
</g>
  <g transform="translate(0, 240) scale(1 1) "><g clip-path="url(#clip0_3_49)">
<rect width="24" height="24" fill="white"/>
<path d="M9 24C9 25.6569 10.3431 27 12 27C13.6569 27 15 25.6569 15 24H9ZM24 15C25.6569 15 27 13.6569 27 12C27 10.3431 25.6569 9 24 9V15ZM15 24V18H9V24H15ZM18 15H24V9H18V15ZM15 18C15 16.3431 16.3431 15 18 15V9C13.0294 9 9 13.0294 9 18H15Z" fill="black"/>
</g>
<defs>
<clipPath id="clip0_3_49">
<rect width="24" height="24" fill="white"/>
</clipPath>
</defs>
</g>
  <g transform="translate(24, 240) scale(1 1) "><g clip-path="url(#clip0_3_46)">
<rect width="24" height="24" fill="white"/>
<path d="M9 24C9 25.6569 10.3431 27 12 27C13.6569 27 15 25.6569 15 24H9ZM24 15C25.6569 15 27 13.6569 27 12C27 10.3431 25.6569 9 24 9V15ZM0 9C-1.65685 9 -3 10.3431 -3 12C-3 13.6569 -1.65685 15 0 15V9ZM15 0C15 -1.65685 13.6569 -3 12 -3C10.3431 -3 9 -1.65685 9 0H15ZM15 24V12H9V24H15ZM12 15H24V9H12V15ZM12 9H0V15H12V9ZM15 12V0H9V12H15Z" fill="black"/>
</g>
<defs>
<clipPath id="clip0_3_46">
<rect width="24" height="24" fill="white"/>
</clipPath>
</defs>
</g>
  <g transform="translate(48, 240) scale(1 1) "><g clip-path="url(#clip0_3_48)">
<rect width="24" height="24" fill="white"/>
<path d="M9 24C9 25.6569 10.3431 27 12 27C13.6569 27 15 25.6569 15 24H9ZM24 15C25.6569 15 27 13.6569 27 12C27 10.3431 25.6569 9 24 9V15ZM0 9C-1.65685 9 -3 10.3431 -3 12C-3 13.6569 -1.65685 15 0 15V9ZM15 24V12H9V24H15ZM12 15H24V9H12V15ZM12 9H0V15H12V9Z" fill="black"/>
</g>
<defs>
<clipPath id="clip0_3_48">
<rect width="24" height="24" fill="white"/>
</clipPath>
</defs>
</g>
  <g transform="translate(72, 240) scale(1 1) "><g clip-path="url(#clip0_3_48)">
<rect width="24" height="24" fill="white"/>
<path d="M9 24C9 25.6569 10.3431 27 12 27C13.6569 27 15 25.6569 15 24H9ZM24 15C25.6569 15 27 13.6569 27 12C27 10.3431 25.6569 9 24 9V15ZM0 9C-1.65685 9 -3 10.3431 -3 12C-3 13.6569 -1.65685 15 0 15V9ZM15 24V12H9V24H15ZM12 15H24V9H12V15ZM12 9H0V15H12V9Z" fill="black"/>
</g>
<defs>
<clipPath id="clip0_3_48">
<rect width="24" height="24" fill="white"/>
</clipPath>
</defs>
</g>
  <g transform="translate(96, 240) scale(1 1) "><g clip-path="url(#clip0_3_48)">
<rect width="24" height="24" fill="white"/>
<path d="M9 24C9 25.6569 10.3431 27 12 27C13.6569 27 15 25.6569 15 24H9ZM24 15C25.6569 15 27 13.6569 27 12C27 10.3431 25.6569 9 24 9V15ZM0 9C-1.65685 9 -3 10.3431 -3 12C-3 13.6569 -1.65685 15 0 15V9ZM15 24V12H9V24H15ZM12 15H24V9H12V15ZM12 9H0V15H12V9Z" fill="black"/>
</g>
<defs>
<clipPath id="clip0_3_48">
<rect width="24" height="24" fill="white"/>
</clipPath>
</defs>
</g>
  <g transform="translate(120, 240) scale(1 1) "><g clip-path="url(#clip0_3_48)">
<rect width="24" height="24" fill="white"/>
<path d="M9 24C9 25.6569 10.3431 27 12 27C13.6569 27 15 25.6569 15 24H9ZM24 15C25.6569 15 27 13.6569 27 12C27 10.3431 25.6569 9 24 9V15ZM0 9C-1.65685 9 -3 10.3431 -3 12C-3 13.6569 -1.65685 15 0 15V9ZM15 24V12H9V24H15ZM12 15H24V9H12V15ZM12 9H0V15H12V9Z" fill="black"/>
</g>
<defs>
<clipPath id="clip0_3_48">
<rect width="24" height="24" fill="white"/>
</clipPath>
</defs>
</g>
  <g transform="translate(144, 240) scale(1 1) "><g clip-path="url(#clip0_3_46)">
<rect width="24" height="24" fill="white"/>
<path d="M9 24C9 25.6569 10.3431 27 12 27C13.6569 27 15 25.6569 15 24H9ZM24 15C25.6569 15 27 13.6569 27 12C27 10.3431 25.6569 9 24 9V15ZM0 9C-1.65685 9 -3 10.3431 -3 12C-3 13.6569 -1.65685 15 0 15V9ZM15 0C15 -1.65685 13.6569 -3 12 -3C10.3431 -3 9 -1.65685 9 0H15ZM15 24V12H9V24H15ZM12 15H24V9H12V15ZM12 9H0V15H12V9ZM15 12V0H9V12H15Z" fill="black"/>
</g>
<defs>
<clipPath id="clip0_3_46">
<rect width="24" height="24" fill="white"/>
</clipPath>
</defs>
</g>
  <g transform="translate(168, 240) scale(1 1) "><g clip-path="url(#clip0_3_42)">
<rect width="24" height="24" fill="white"/>
<path d="M9 24C9 25.6569 10.3431 27 12 27C13.6569 27 15 25.6569 15 24H9ZM0 9C-1.65685 9 -3 10.3431 -3 12C-3 13.6569 -1.65685 15 0 15V9ZM15 24V18H9V24H15ZM6 9H0V15H6V9ZM15 18C15 13.0294 10.9706 9 6 9V15C7.65685 15 9 16.3431 9 18H15Z" fill="black"/>
</g>
<defs>
<clipPath id="clip0_3_42">
<rect width="24" height="24" fill="white"/>
</clipPath>
</defs>
</g>
  <g transform="translate(192, 240) scale(1 1) "><g clip-path="url(#clip0_3_41)">
<rect width="24" height="24" fill="white"/>
<path d="M15 12C15 10.3431 13.6569 9 12 9C10.3431 9 9 10.3431 9 12L15 12ZM9 24C9 25.6569 10.3431 27 12 27C13.6569 27 15 25.6569 15 24H9ZM9 12V24H15V12L9 12Z" fill="black"/>
</g>
<defs>
<clipPath id="clip0_3_41">
<rect width="24" height="24" fill="white"/>
</clipPath>
</defs>
</g>
  <g transform="translate(216, 240) scale(1 1) "><g clip-path="url(#clip0_3_41)">
<rect width="24" height="24" fill="white"/>
<path d="M15 12C15 10.3431 13.6569 9 12 9C10.3431 9 9 10.3431 9 12L15 12ZM9 24C9 25.6569 10.3431 27 12 27C13.6569 27 15 25.6569 15 24H9ZM9 12V24H15V12L9 12Z" fill="black"/>
</g>
<defs>
<clipPath id="clip0_3_41">
<rect width="24" height="24" fill="white"/>
</clipPath>
</defs>
</g>
  <g transform="translate(0, 264) scale(1 1) "><g clip-path="url(#clip0_3_47)">
<rect width="24" height="24" fill="white"/>
<path d="M15 0C15 -1.65685 13.6569 -3 12 -3C10.3431 -3 9 -1.65685 9 0H15ZM24 15C25.6569 15 27 13.6569 27 12C27 10.3431 25.6569 9 24 9V15ZM9 24C9 25.6569 10.3431 27 12 27C13.6569 27 15 25.6569 15 24H9ZM9 0V12H15V0H9ZM12 15H24V9H12V15ZM9 12V24H15V12H9Z" fill="black"/>
</g>
<defs>
<clipPath id="clip0_3_47">
<rect width="24" height="24" fill="white"/>
</clipPath>
</defs>
</g>
  <g transform="translate(24, 264) scale(1 1) "><g clip-path="url(#clip0_3_46)">
<rect width="24" height="24" fill="white"/>
<path d="M9 24C9 25.6569 10.3431 27 12 27C13.6569 27 15 25.6569 15 24H9ZM24 15C25.6569 15 27 13.6569 27 12C27 10.3431 25.6569 9 24 9V15ZM0 9C-1.65685 9 -3 10.3431 -3 12C-3 13.6569 -1.65685 15 0 15V9ZM15 0C15 -1.65685 13.6569 -3 12 -3C10.3431 -3 9 -1.65685 9 0H15ZM15 24V12H9V24H15ZM12 15H24V9H12V15ZM12 9H0V15H12V9ZM15 12V0H9V12H15Z" fill="black"/>
</g>
<defs>
<clipPath id="clip0_3_46">
<rect width="24" height="24" fill="white"/>
</clipPath>
</defs>
</g>
  <g transform="translate(48, 264) scale(1 1) "><g clip-path="url(#clip0_3_46)">
<rect width="24" height="24" fill="white"/>
<path d="M9 24C9 25.6569 10.3431 27 12 27C13.6569 27 15 25.6569 15 24H9ZM24 15C25.6569 15 27 13.6569 27 12C27 10.3431 25.6569 9 24 9V15ZM0 9C-1.65685 9 -3 10.3431 -3 12C-3 13.6569 -1.65685 15 0 15V9ZM15 0C15 -1.65685 13.6569 -3 12 -3C10.3431 -3 9 -1.65685 9 0H15ZM15 24V12H9V24H15ZM12 15H24V9H12V15ZM12 9H0V15H12V9ZM15 12V0H9V12H15Z" fill="black"/>
</g>
<defs>
<clipPath id="clip0_3_46">
<rect width="24" height="24" fill="white"/>
</clipPath>
</defs>
</g>
  <g transform="translate(72, 264) scale(1 1) "><g clip-path="url(#clip0_3_46)">
<rect width="24" height="24" fill="white"/>
<path d="M9 24C9 25.6569 10.3431 27 12 27C13.6569 27 15 25.6569 15 24H9ZM24 15C25.6569 15 27 13.6569 27 12C27 10.3431 25.6569 9 24 9V15ZM0 9C-1.65685 9 -3 10.3431 -3 12C-3 13.6569 -1.65685 15 0 15V9ZM15 0C15 -1.65685 13.6569 -3 12 -3C10.3431 -3 9 -1.65685 9 0H15ZM15 24V12H9V24H15ZM12 15H24V9H12V15ZM12 9H0V15H12V9ZM15 12V0H9V12H15Z" fill="black"/>
</g>
<defs>
<clipPath id="clip0_3_46">
<rect width="24" height="24" fill="white"/>
</clipPath>
</defs>
</g>
  <g transform="translate(96, 264) scale(1 1) "><g clip-path="url(#clip0_3_37)">
<rect width="24" height="24" fill="white"/>
<path d="M15 0C15 -1.65685 13.6569 -3 12 -3C10.3431 -3 9 -1.65685 9 0H15ZM0 9C-1.65685 9 -3 10.3431 -3 12C-3 13.6569 -1.65685 15 0 15V9ZM24 15C25.6569 15 27 13.6569 27 12C27 10.3431 25.6569 9 24 9V15ZM9 0V12H15V0H9ZM12 9H0V15H12V9ZM12 15H24V9H12V15Z" fill="black"/>
</g>
<defs>
<clipPath id="clip0_3_37">
<rect width="24" height="24" fill="white"/>
</clipPath>
</defs>
</g>
  <g transform="translate(120, 264) scale(1 1) "><g clip-path="url(#clip0_3_37)">
<rect width="24" height="24" fill="white"/>
<path d="M15 0C15 -1.65685 13.6569 -3 12 -3C10.3431 -3 9 -1.65685 9 0H15ZM0 9C-1.65685 9 -3 10.3431 -3 12C-3 13.6569 -1.65685 15 0 15V9ZM24 15C25.6569 15 27 13.6569 27 12C27 10.3431 25.6569 9 24 9V15ZM9 0V12H15V0H9ZM12 9H0V15H12V9ZM12 15H24V9H12V15Z" fill="black"/>
</g>
<defs>
<clipPath id="clip0_3_37">
<rect width="24" height="24" fill="white"/>
</clipPath>
</defs>
</g>
  <g transform="translate(144, 264) scale(1 1) "><g clip-path="url(#clip0_3_37)">
<rect width="24" height="24" fill="white"/>
<path d="M15 0C15 -1.65685 13.6569 -3 12 -3C10.3431 -3 9 -1.65685 9 0H15ZM0 9C-1.65685 9 -3 10.3431 -3 12C-3 13.6569 -1.65685 15 0 15V9ZM24 15C25.6569 15 27 13.6569 27 12C27 10.3431 25.6569 9 24 9V15ZM9 0V12H15V0H9ZM12 9H0V15H12V9ZM12 15H24V9H12V15Z" fill="black"/>
</g>
<defs>
<clipPath id="clip0_3_37">
<rect width="24" height="24" fill="white"/>
</clipPath>
</defs>
</g>
  <g transform="translate(168, 264) scale(1 1) "><g clip-path="url(#clip0_3_45)">
<rect width="24" height="24" fill="white"/>
<path d="M9 24C9 25.6569 10.3431 27 12 27C13.6569 27 15 25.6569 15 24H9ZM0 9C-1.65685 9 -3 10.3431 -3 12C-3 13.6569 -1.65685 15 0 15V9ZM15 0C15 -1.65685 13.6569 -3 12 -3C10.3431 -3 9 -1.65685 9 0H15ZM15 24V12H9V24H15ZM12 9H0V15H12V9ZM15 12V0H9V12H15Z" fill="black"/>
</g>
<defs>
<clipPath id="clip0_3_45">
<rect width="24" height="24" fill="white"/>
</clipPath>
</defs>
</g>
  <g transform="translate(192, 264) scale(1 1) "><g clip-path="url(#clip0_3_44)">
<rect width="24" height="24" fill="white"/>
<path d="M12 24V-1.90735e-06" stroke="black" stroke-width="6" stroke-linecap="round"/>
</g>
<defs>
<clipPath id="clip0_3_44">
<rect width="24" height="24" fill="white"/>
</clipPath>
</defs>
</g>
  <g transform="translate(216, 264) scale(1 1) "><g clip-path="url(#clip0_3_44)">
<rect width="24" height="24" fill="white"/>
<path d="M12 24V-1.90735e-06" stroke="black" stroke-width="6" stroke-linecap="round"/>
</g>
<defs>
<clipPath id="clip0_3_44">
<rect width="24" height="24" fill="white"/>
</clipPath>
</defs>
</g>
  <g transform="translate(0, 288) scale(1 1) "><g clip-path="url(#clip0_3_47)">
<rect width="24" height="24" fill="white"/>
<path d="M15 0C15 -1.65685 13.6569 -3 12 -3C10.3431 -3 9 -1.65685 9 0H15ZM24 15C25.6569 15 27 13.6569 27 12C27 10.3431 25.6569 9 24 9V15ZM9 24C9 25.6569 10.3431 27 12 27C13.6569 27 15 25.6569 15 24H9ZM9 0V12H15V0H9ZM12 15H24V9H12V15ZM9 12V24H15V12H9Z" fill="black"/>
</g>
<defs>
<clipPath id="clip0_3_47">
<rect width="24" height="24" fill="white"/>
</clipPath>
</defs>
</g>
  <g transform="translate(24, 288) scale(1 1) "><g clip-path="url(#clip0_3_46)">
<rect width="24" height="24" fill="white"/>
<path d="M9 24C9 25.6569 10.3431 27 12 27C13.6569 27 15 25.6569 15 24H9ZM24 15C25.6569 15 27 13.6569 27 12C27 10.3431 25.6569 9 24 9V15ZM0 9C-1.65685 9 -3 10.3431 -3 12C-3 13.6569 -1.65685 15 0 15V9ZM15 0C15 -1.65685 13.6569 -3 12 -3C10.3431 -3 9 -1.65685 9 0H15ZM15 24V12H9V24H15ZM12 15H24V9H12V15ZM12 9H0V15H12V9ZM15 12V0H9V12H15Z" fill="black"/>
</g>
<defs>
<clipPath id="clip0_3_46">
<rect width="24" height="24" fill="white"/>
</clipPath>
</defs>
</g>
  <g transform="translate(48, 288) scale(1 1) "><g clip-path="url(#clip0_3_46)">
<rect width="24" height="24" fill="white"/>
<path d="M9 24C9 25.6569 10.3431 27 12 27C13.6569 27 15 25.6569 15 24H9ZM24 15C25.6569 15 27 13.6569 27 12C27 10.3431 25.6569 9 24 9V15ZM0 9C-1.65685 9 -3 10.3431 -3 12C-3 13.6569 -1.65685 15 0 15V9ZM15 0C15 -1.65685 13.6569 -3 12 -3C10.3431 -3 9 -1.65685 9 0H15ZM15 24V12H9V24H15ZM12 15H24V9H12V15ZM12 9H0V15H12V9ZM15 12V0H9V12H15Z" fill="black"/>
</g>
<defs>
<clipPath id="clip0_3_46">
<rect width="24" height="24" fill="white"/>
</clipPath>
</defs>
</g>
  <g transform="translate(72, 288) scale(1 1) "><g clip-path="url(#clip0_3_36)">
<rect width="24" height="24" fill="white"/>
<path d="M15 0C15 -1.65685 13.6569 -3 12 -3C10.3431 -3 9 -1.65685 9 0H15ZM0 9C-1.65685 9 -3 10.3431 -3 12C-3 13.6569 -1.65685 15 0 15V9ZM9 0V6H15V0H9ZM6 9H0V15H6V9ZM9 6C9 7.65685 7.65685 9 6 9V15C10.9706 15 15 10.9706 15 6H9Z" fill="black"/>
</g>
<defs>
<clipPath id="clip0_3_36">
<rect width="24" height="24" fill="white"/>
</clipPath>
</defs>
</g>
  <g transform="translate(96, 288) scale(1 1) "><rect width="24" height="24" fill="white"/>
</g>
  <g transform="translate(120, 288) scale(1 1) "><rect width="24" height="24" fill="white"/>
</g>
  <g transform="translate(144, 288) scale(1 1) "><rect width="24" height="24" fill="white"/>
</g>
  <g transform="translate(168, 288) scale(1 1) "><g clip-path="url(#clip0_3_44)">
<rect width="24" height="24" fill="white"/>
<path d="M12 24V-1.90735e-06" stroke="black" stroke-width="6" stroke-linecap="round"/>
</g>
<defs>
<clipPath id="clip0_3_44">
<rect width="24" height="24" fill="white"/>
</clipPath>
</defs>
</g>
  <g transform="translate(192, 288) scale(1 1) "><g clip-path="url(#clip0_3_44)">
<rect width="24" height="24" fill="white"/>
<path d="M12 24V-1.90735e-06" stroke="black" stroke-width="6" stroke-linecap="round"/>
</g>
<defs>
<clipPath id="clip0_3_44">
<rect width="24" height="24" fill="white"/>
</clipPath>
</defs>
</g>
  <g transform="translate(216, 288) scale(1 1) "><g clip-path="url(#clip0_3_44)">
<rect width="24" height="24" fill="white"/>
<path d="M12 24V-1.90735e-06" stroke="black" stroke-width="6" stroke-linecap="round"/>
</g>
<defs>
<clipPath id="clip0_3_44">
<rect width="24" height="24" fill="white"/>
</clipPath>
</defs>
</g>
  <g transform="translate(0, 312) scale(1 1) "><g clip-path="url(#clip0_3_47)">
<rect width="24" height="24" fill="white"/>
<path d="M15 0C15 -1.65685 13.6569 -3 12 -3C10.3431 -3 9 -1.65685 9 0H15ZM24 15C25.6569 15 27 13.6569 27 12C27 10.3431 25.6569 9 24 9V15ZM9 24C9 25.6569 10.3431 27 12 27C13.6569 27 15 25.6569 15 24H9ZM9 0V12H15V0H9ZM12 15H24V9H12V15ZM9 12V24H15V12H9Z" fill="black"/>
</g>
<defs>
<clipPath id="clip0_3_47">
<rect width="24" height="24" fill="white"/>
</clipPath>
</defs>
</g>
  <g transform="translate(24, 312) scale(1 1) "><g clip-path="url(#clip0_3_46)">
<rect width="24" height="24" fill="white"/>
<path d="M9 24C9 25.6569 10.3431 27 12 27C13.6569 27 15 25.6569 15 24H9ZM24 15C25.6569 15 27 13.6569 27 12C27 10.3431 25.6569 9 24 9V15ZM0 9C-1.65685 9 -3 10.3431 -3 12C-3 13.6569 -1.65685 15 0 15V9ZM15 0C15 -1.65685 13.6569 -3 12 -3C10.3431 -3 9 -1.65685 9 0H15ZM15 24V12H9V24H15ZM12 15H24V9H12V15ZM12 9H0V15H12V9ZM15 12V0H9V12H15Z" fill="black"/>
</g>
<defs>
<clipPath id="clip0_3_46">
<rect width="24" height="24" fill="white"/>
</clipPath>
</defs>
</g>
  <g transform="translate(48, 312) scale(1 1) "><g clip-path="url(#clip0_3_46)">
<rect width="24" height="24" fill="white"/>
<path d="M9 24C9 25.6569 10.3431 27 12 27C13.6569 27 15 25.6569 15 24H9ZM24 15C25.6569 15 27 13.6569 27 12C27 10.3431 25.6569 9 24 9V15ZM0 9C-1.65685 9 -3 10.3431 -3 12C-3 13.6569 -1.65685 15 0 15V9ZM15 0C15 -1.65685 13.6569 -3 12 -3C10.3431 -3 9 -1.65685 9 0H15ZM15 24V12H9V24H15ZM12 15H24V9H12V15ZM12 9H0V15H12V9ZM15 12V0H9V12H15Z" fill="black"/>
</g>
<defs>
<clipPath id="clip0_3_46">
<rect width="24" height="24" fill="white"/>
</clipPath>
</defs>
</g>
  <g transform="translate(72, 312) scale(1 1) "><g clip-path="url(#clip0_3_42)">
<rect width="24" height="24" fill="white"/>
<path d="M9 24C9 25.6569 10.3431 27 12 27C13.6569 27 15 25.6569 15 24H9ZM0 9C-1.65685 9 -3 10.3431 -3 12C-3 13.6569 -1.65685 15 0 15V9ZM15 24V18H9V24H15ZM6 9H0V15H6V9ZM15 18C15 13.0294 10.9706 9 6 9V15C7.65685 15 9 16.3431 9 18H15Z" fill="black"/>
</g>
<defs>
<clipPath id="clip0_3_42">
<rect width="24" height="24" fill="white"/>
</clipPath>
</defs>
</g>
  <g transform="translate(96, 312) scale(1 1) "><rect width="24" height="24" fill="white"/>
</g>
  <g transform="translate(120, 312) scale(1 1) "><rect width="24" height="24" fill="white"/>
</g>
  <g transform="translate(144, 312) scale(1 1) "><rect width="24" height="24" fill="white"/>
</g>
  <g transform="translate(168, 312) scale(1 1) "><g clip-path="url(#clip0_3_47)">
<rect width="24" height="24" fill="white"/>
<path d="M15 0C15 -1.65685 13.6569 -3 12 -3C10.3431 -3 9 -1.65685 9 0H15ZM24 15C25.6569 15 27 13.6569 27 12C27 10.3431 25.6569 9 24 9V15ZM9 24C9 25.6569 10.3431 27 12 27C13.6569 27 15 25.6569 15 24H9ZM9 0V12H15V0H9ZM12 15H24V9H12V15ZM9 12V24H15V12H9Z" fill="black"/>
</g>
<defs>
<clipPath id="clip0_3_47">
<rect width="24" height="24" fill="white"/>
</clipPath>
</defs>
</g>
  <g transform="translate(192, 312) scale(1 1) "><g clip-path="url(#clip0_3_46)">
<rect width="24" height="24" fill="white"/>
<path d="M9 24C9 25.6569 10.3431 27 12 27C13.6569 27 15 25.6569 15 24H9ZM24 15C25.6569 15 27 13.6569 27 12C27 10.3431 25.6569 9 24 9V15ZM0 9C-1.65685 9 -3 10.3431 -3 12C-3 13.6569 -1.65685 15 0 15V9ZM15 0C15 -1.65685 13.6569 -3 12 -3C10.3431 -3 9 -1.65685 9 0H15ZM15 24V12H9V24H15ZM12 15H24V9H12V15ZM12 9H0V15H12V9ZM15 12V0H9V12H15Z" fill="black"/>
</g>
<defs>
<clipPath id="clip0_3_46">
<rect width="24" height="24" fill="white"/>
</clipPath>
</defs>
</g>
  <g transform="translate(216, 312) scale(1 1) "><g clip-path="url(#clip0_3_45)">
<rect width="24" height="24" fill="white"/>
<path d="M9 24C9 25.6569 10.3431 27 12 27C13.6569 27 15 25.6569 15 24H9ZM0 9C-1.65685 9 -3 10.3431 -3 12C-3 13.6569 -1.65685 15 0 15V9ZM15 0C15 -1.65685 13.6569 -3 12 -3C10.3431 -3 9 -1.65685 9 0H15ZM15 24V12H9V24H15ZM12 9H0V15H12V9ZM15 12V0H9V12H15Z" fill="black"/>
</g>
<defs>
<clipPath id="clip0_3_45">
<rect width="24" height="24" fill="white"/>
</clipPath>
</defs>
</g>
  <g transform="translate(0, 336) scale(1 1) "><g clip-path="url(#clip0_3_47)">
<rect width="24" height="24" fill="white"/>
<path d="M15 0C15 -1.65685 13.6569 -3 12 -3C10.3431 -3 9 -1.65685 9 0H15ZM24 15C25.6569 15 27 13.6569 27 12C27 10.3431 25.6569 9 24 9V15ZM9 24C9 25.6569 10.3431 27 12 27C13.6569 27 15 25.6569 15 24H9ZM9 0V12H15V0H9ZM12 15H24V9H12V15ZM9 12V24H15V12H9Z" fill="black"/>
</g>
<defs>
<clipPath id="clip0_3_47">
<rect width="24" height="24" fill="white"/>
</clipPath>
</defs>
</g>
  <g transform="translate(24, 336) scale(1 1) "><g clip-path="url(#clip0_3_46)">
<rect width="24" height="24" fill="white"/>
<path d="M9 24C9 25.6569 10.3431 27 12 27C13.6569 27 15 25.6569 15 24H9ZM24 15C25.6569 15 27 13.6569 27 12C27 10.3431 25.6569 9 24 9V15ZM0 9C-1.65685 9 -3 10.3431 -3 12C-3 13.6569 -1.65685 15 0 15V9ZM15 0C15 -1.65685 13.6569 -3 12 -3C10.3431 -3 9 -1.65685 9 0H15ZM15 24V12H9V24H15ZM12 15H24V9H12V15ZM12 9H0V15H12V9ZM15 12V0H9V12H15Z" fill="black"/>
</g>
<defs>
<clipPath id="clip0_3_46">
<rect width="24" height="24" fill="white"/>
</clipPath>
</defs>
</g>
  <g transform="translate(48, 336) scale(1 1) "><g clip-path="url(#clip0_3_46)">
<rect width="24" height="24" fill="white"/>
<path d="M9 24C9 25.6569 10.3431 27 12 27C13.6569 27 15 25.6569 15 24H9ZM24 15C25.6569 15 27 13.6569 27 12C27 10.3431 25.6569 9 24 9V15ZM0 9C-1.65685 9 -3 10.3431 -3 12C-3 13.6569 -1.65685 15 0 15V9ZM15 0C15 -1.65685 13.6569 -3 12 -3C10.3431 -3 9 -1.65685 9 0H15ZM15 24V12H9V24H15ZM12 15H24V9H12V15ZM12 9H0V15H12V9ZM15 12V0H9V12H15Z" fill="black"/>
</g>
<defs>
<clipPath id="clip0_3_46">
<rect width="24" height="24" fill="white"/>
</clipPath>
</defs>
</g>
  <g transform="translate(72, 336) scale(1 1) "><g clip-path="url(#clip0_3_46)">
<rect width="24" height="24" fill="white"/>
<path d="M9 24C9 25.6569 10.3431 27 12 27C13.6569 27 15 25.6569 15 24H9ZM24 15C25.6569 15 27 13.6569 27 12C27 10.3431 25.6569 9 24 9V15ZM0 9C-1.65685 9 -3 10.3431 -3 12C-3 13.6569 -1.65685 15 0 15V9ZM15 0C15 -1.65685 13.6569 -3 12 -3C10.3431 -3 9 -1.65685 9 0H15ZM15 24V12H9V24H15ZM12 15H24V9H12V15ZM12 9H0V15H12V9ZM15 12V0H9V12H15Z" fill="black"/>
</g>
<defs>
<clipPath id="clip0_3_46">
<rect width="24" height="24" fill="white"/>
</clipPath>
</defs>
</g>
  <g transform="translate(96, 336) scale(1 1) "><g clip-path="url(#clip0_3_48)">
<rect width="24" height="24" fill="white"/>
<path d="M9 24C9 25.6569 10.3431 27 12 27C13.6569 27 15 25.6569 15 24H9ZM24 15C25.6569 15 27 13.6569 27 12C27 10.3431 25.6569 9 24 9V15ZM0 9C-1.65685 9 -3 10.3431 -3 12C-3 13.6569 -1.65685 15 0 15V9ZM15 24V12H9V24H15ZM12 15H24V9H12V15ZM12 9H0V15H12V9Z" fill="black"/>
</g>
<defs>
<clipPath id="clip0_3_48">
<rect width="24" height="24" fill="white"/>
</clipPath>
</defs>
</g>
  <g transform="translate(120, 336) scale(1 1) "><g clip-path="url(#clip0_3_48)">
<rect width="24" height="24" fill="white"/>
<path d="M9 24C9 25.6569 10.3431 27 12 27C13.6569 27 15 25.6569 15 24H9ZM24 15C25.6569 15 27 13.6569 27 12C27 10.3431 25.6569 9 24 9V15ZM0 9C-1.65685 9 -3 10.3431 -3 12C-3 13.6569 -1.65685 15 0 15V9ZM15 24V12H9V24H15ZM12 15H24V9H12V15ZM12 9H0V15H12V9Z" fill="black"/>
</g>
<defs>
<clipPath id="clip0_3_48">
<rect width="24" height="24" fill="white"/>
</clipPath>
</defs>
</g>
  <g transform="translate(144, 336) scale(1 1) "><g clip-path="url(#clip0_3_48)">
<rect width="24" height="24" fill="white"/>
<path d="M9 24C9 25.6569 10.3431 27 12 27C13.6569 27 15 25.6569 15 24H9ZM24 15C25.6569 15 27 13.6569 27 12C27 10.3431 25.6569 9 24 9V15ZM0 9C-1.65685 9 -3 10.3431 -3 12C-3 13.6569 -1.65685 15 0 15V9ZM15 24V12H9V24H15ZM12 15H24V9H12V15ZM12 9H0V15H12V9Z" fill="black"/>
</g>
<defs>
<clipPath id="clip0_3_48">
<rect width="24" height="24" fill="white"/>
</clipPath>
</defs>
</g>
  <g transform="translate(168, 336) scale(1 1) "><g clip-path="url(#clip0_3_45)">
<rect width="24" height="24" fill="white"/>
<path d="M9 24C9 25.6569 10.3431 27 12 27C13.6569 27 15 25.6569 15 24H9ZM0 9C-1.65685 9 -3 10.3431 -3 12C-3 13.6569 -1.65685 15 0 15V9ZM15 0C15 -1.65685 13.6569 -3 12 -3C10.3431 -3 9 -1.65685 9 0H15ZM15 24V12H9V24H15ZM12 9H0V15H12V9ZM15 12V0H9V12H15Z" fill="black"/>
</g>
<defs>
<clipPath id="clip0_3_45">
<rect width="24" height="24" fill="white"/>
</clipPath>
</defs>
</g>
  <g transform="translate(192, 336) scale(1 1) "><g clip-path="url(#clip0_3_44)">
<rect width="24" height="24" fill="white"/>
<path d="M12 24V-1.90735e-06" stroke="black" stroke-width="6" stroke-linecap="round"/>
</g>
<defs>
<clipPath id="clip0_3_44">
<rect width="24" height="24" fill="white"/>
</clipPath>
</defs>
</g>
  <g transform="translate(216, 336) scale(1 1) "><g clip-path="url(#clip0_3_44)">
<rect width="24" height="24" fill="white"/>
<path d="M12 24V-1.90735e-06" stroke="black" stroke-width="6" stroke-linecap="round"/>
</g>
<defs>
<clipPath id="clip0_3_44">
<rect width="24" height="24" fill="white"/>
</clipPath>
</defs>
</g>
  <g transform="translate(0, 360) scale(1 1) "><g clip-path="url(#clip0_3_38)">
<rect width="24" height="24" fill="white"/>
<path d="M15 0C15 -1.65685 13.6569 -3 12 -3C10.3431 -3 9 -1.65685 9 0H15ZM24 15C25.6569 15 27 13.6569 27 12C27 10.3431 25.6569 9 24 9V15ZM9 0V6H15V0H9ZM18 15H24V9H18V15ZM9 6C9 10.9706 13.0294 15 18 15V9C16.3431 9 15 7.65685 15 6H9Z" fill="black"/>
</g>
<defs>
<clipPath id="clip0_3_38">
<rect width="24" height="24" fill="white"/>
</clipPath>
</defs>
</g>
  <g transform="translate(24, 360) scale(1 1) "><g clip-path="url(#clip0_3_37)">
<rect width="24" height="24" fill="white"/>
<path d="M15 0C15 -1.65685 13.6569 -3 12 -3C10.3431 -3 9 -1.65685 9 0H15ZM0 9C-1.65685 9 -3 10.3431 -3 12C-3 13.6569 -1.65685 15 0 15V9ZM24 15C25.6569 15 27 13.6569 27 12C27 10.3431 25.6569 9 24 9V15ZM9 0V12H15V0H9ZM12 9H0V15H12V9ZM12 15H24V9H12V15Z" fill="black"/>
</g>
<defs>
<clipPath id="clip0_3_37">
<rect width="24" height="24" fill="white"/>
</clipPath>
</defs>
</g>
  <g transform="translate(48, 360) scale(1 1) "><g clip-path="url(#clip0_3_37)">
<rect width="24" height="24" fill="white"/>
<path d="M15 0C15 -1.65685 13.6569 -3 12 -3C10.3431 -3 9 -1.65685 9 0H15ZM0 9C-1.65685 9 -3 10.3431 -3 12C-3 13.6569 -1.65685 15 0 15V9ZM24 15C25.6569 15 27 13.6569 27 12C27 10.3431 25.6569 9 24 9V15ZM9 0V12H15V0H9ZM12 9H0V15H12V9ZM12 15H24V9H12V15Z" fill="black"/>
</g>
<defs>
<clipPath id="clip0_3_37">
<rect width="24" height="24" fill="white"/>
</clipPath>
</defs>
</g>
  <g transform="translate(72, 360) scale(1 1) "><g clip-path="url(#clip0_3_37)">
<rect width="24" height="24" fill="white"/>
<path d="M15 0C15 -1.65685 13.6569 -3 12 -3C10.3431 -3 9 -1.65685 9 0H15ZM0 9C-1.65685 9 -3 10.3431 -3 12C-3 13.6569 -1.65685 15 0 15V9ZM24 15C25.6569 15 27 13.6569 27 12C27 10.3431 25.6569 9 24 9V15ZM9 0V12H15V0H9ZM12 9H0V15H12V9ZM12 15H24V9H12V15Z" fill="black"/>
</g>
<defs>
<clipPath id="clip0_3_37">
<rect width="24" height="24" fill="white"/>
</clipPath>
</defs>
</g>
  <g transform="translate(96, 360) scale(1 1) "><g clip-path="url(#clip0_3_37)">
<rect width="24" height="24" fill="white"/>
<path d="M15 0C15 -1.65685 13.6569 -3 12 -3C10.3431 -3 9 -1.65685 9 0H15ZM0 9C-1.65685 9 -3 10.3431 -3 12C-3 13.6569 -1.65685 15 0 15V9ZM24 15C25.6569 15 27 13.6569 27 12C27 10.3431 25.6569 9 24 9V15ZM9 0V12H15V0H9ZM12 9H0V15H12V9ZM12 15H24V9H12V15Z" fill="black"/>
</g>
<defs>
<clipPath id="clip0_3_37">
<rect width="24" height="24" fill="white"/>
</clipPath>
</defs>
</g>
  <g transform="translate(120, 360) scale(1 1) "><g clip-path="url(#clip0_3_37)">
<rect width="24" height="24" fill="white"/>
<path d="M15 0C15 -1.65685 13.6569 -3 12 -3C10.3431 -3 9 -1.65685 9 0H15ZM0 9C-1.65685 9 -3 10.3431 -3 12C-3 13.6569 -1.65685 15 0 15V9ZM24 15C25.6569 15 27 13.6569 27 12C27 10.3431 25.6569 9 24 9V15ZM9 0V12H15V0H9ZM12 9H0V15H12V9ZM12 15H24V9H12V15Z" fill="black"/>
</g>
<defs>
<clipPath id="clip0_3_37">
<rect width="24" height="24" fill="white"/>
</clipPath>
</defs>
</g>
  <g transform="translate(144, 360) scale(1 1) "><g clip-path="url(#clip0_3_37)">
<rect width="24" height="24" fill="white"/>
<path d="M15 0C15 -1.65685 13.6569 -3 12 -3C10.3431 -3 9 -1.65685 9 0H15ZM0 9C-1.65685 9 -3 10.3431 -3 12C-3 13.6569 -1.65685 15 0 15V9ZM24 15C25.6569 15 27 13.6569 27 12C27 10.3431 25.6569 9 24 9V15ZM9 0V12H15V0H9ZM12 9H0V15H12V9ZM12 15H24V9H12V15Z" fill="black"/>
</g>
<defs>
<clipPath id="clip0_3_37">
<rect width="24" height="24" fill="white"/>
</clipPath>
</defs>
</g>
  <g transform="translate(168, 360) scale(1 1) "><g clip-path="url(#clip0_3_36)">
<rect width="24" height="24" fill="white"/>
<path d="M15 0C15 -1.65685 13.6569 -3 12 -3C10.3431 -3 9 -1.65685 9 0H15ZM0 9C-1.65685 9 -3 10.3431 -3 12C-3 13.6569 -1.65685 15 0 15V9ZM9 0V6H15V0H9ZM6 9H0V15H6V9ZM9 6C9 7.65685 7.65685 9 6 9V15C10.9706 15 15 10.9706 15 6H9Z" fill="black"/>
</g>
<defs>
<clipPath id="clip0_3_36">
<rect width="24" height="24" fill="white"/>
</clipPath>
</defs>
</g>
  <g transform="translate(192, 360) scale(1 1) "><g clip-path="url(#clip0_3_35)">
<rect width="24" height="24" fill="white"/>
<path d="M15 0C15 -1.65685 13.6569 -3 12 -3C10.3431 -3 9 -1.65685 9 0H15ZM9 12C9 13.6569 10.3431 15 12 15C13.6569 15 15 13.6569 15 12H9ZM9 0V12H15V0H9Z" fill="black"/>
</g>
<defs>
<clipPath id="clip0_3_35">
<rect width="24" height="24" fill="white"/>
</clipPath>
</defs>
</g>
  <g transform="translate(216, 360) scale(1 1) "><g clip-path="url(#clip0_3_35)">
<rect width="24" height="24" fill="white"/>
<path d="M15 0C15 -1.65685 13.6569 -3 12 -3C10.3431 -3 9 -1.65685 9 0H15ZM9 12C9 13.6569 10.3431 15 12 15C13.6569 15 15 13.6569 15 12H9ZM9 0V12H15V0H9Z" fill="black"/>
</g>
<defs>
<clipPath id="clip0_3_35">
<rect width="24" height="24" fill="white"/>
</clipPath>
</defs>
</g>
</g>
  </g>
</svg>
